{
 "cells": [
  {
   "cell_type": "code",
   "execution_count": 1,
   "id": "fc6009c2-94be-461d-be39-17c3c7285d84",
   "metadata": {},
   "outputs": [],
   "source": [
    "import cv2\n",
    "import os\n",
    "import time \n",
    "import ffmpeg "
   ]
  },
  {
   "cell_type": "code",
   "execution_count": 2,
   "id": "8d1bb9c0-62c5-43dc-b54d-b48558f9c60a",
   "metadata": {},
   "outputs": [
    {
     "name": "stderr",
     "output_type": "stream",
     "text": [
      "ffmpeg version 4.4.2-0ubuntu0.22.04.1 Copyright (c) 2000-2021 the FFmpeg developers\n",
      "  built with gcc 11 (Ubuntu 11.2.0-19ubuntu1)\n",
      "  configuration: --prefix=/usr --extra-version=0ubuntu0.22.04.1 --toolchain=hardened --libdir=/usr/lib/x86_64-linux-gnu --incdir=/usr/include/x86_64-linux-gnu --arch=amd64 --enable-gpl --disable-stripping --enable-gnutls --enable-ladspa --enable-libaom --enable-libass --enable-libbluray --enable-libbs2b --enable-libcaca --enable-libcdio --enable-libcodec2 --enable-libdav1d --enable-libflite --enable-libfontconfig --enable-libfreetype --enable-libfribidi --enable-libgme --enable-libgsm --enable-libjack --enable-libmp3lame --enable-libmysofa --enable-libopenjpeg --enable-libopenmpt --enable-libopus --enable-libpulse --enable-librabbitmq --enable-librubberband --enable-libshine --enable-libsnappy --enable-libsoxr --enable-libspeex --enable-libsrt --enable-libssh --enable-libtheora --enable-libtwolame --enable-libvidstab --enable-libvorbis --enable-libvpx --enable-libwebp --enable-libx265 --enable-libxml2 --enable-libxvid --enable-libzimg --enable-libzmq --enable-libzvbi --enable-lv2 --enable-omx --enable-openal --enable-opencl --enable-opengl --enable-sdl2 --enable-pocketsphinx --enable-librsvg --enable-libmfx --enable-libdc1394 --enable-libdrm --enable-libiec61883 --enable-chromaprint --enable-frei0r --enable-libx264 --enable-shared\n",
      "  libavutil      56. 70.100 / 56. 70.100\n",
      "  libavcodec     58.134.100 / 58.134.100\n",
      "  libavformat    58. 76.100 / 58. 76.100\n",
      "  libavdevice    58. 13.100 / 58. 13.100\n",
      "  libavfilter     7.110.100 /  7.110.100\n",
      "  libswscale      5.  9.100 /  5.  9.100\n",
      "  libswresample   3.  9.100 /  3.  9.100\n",
      "  libpostproc    55.  9.100 / 55.  9.100\n",
      "Input #0, mov,mp4,m4a,3gp,3g2,mj2, from '/home/ozzom/Videos/LinearAlgebra/선형대수 11강 벡터투영과 최소제곱법.mp4':\n",
      "  Metadata:\n",
      "    major_brand     : mp42\n",
      "    minor_version   : 0\n",
      "    compatible_brands: isommp42\n",
      "    creation_time   : 2013-12-28T06:01:39.000000Z\n",
      "  Duration: 01:10:40.22, start: 0.000000, bitrate: 467 kb/s\n",
      "  Stream #0:0(und): Video: h264 (Main) (avc1 / 0x31637661), yuv420p, 640x360, 338 kb/s, 29.97 fps, 29.97 tbr, 90k tbn, 59.94 tbc (default)\n",
      "    Metadata:\n",
      "      creation_time   : 2013-12-28T06:01:39.000000Z\n",
      "      handler_name    : ISO Media file produced by Google Inc. Created on: 12/27/2013.\n",
      "      vendor_id       : [0][0][0][0]\n",
      "  Stream #0:1(und): Audio: aac (LC) (mp4a / 0x6134706D), 44100 Hz, stereo, fltp, 125 kb/s (default)\n",
      "    Metadata:\n",
      "      creation_time   : 2013-12-28T06:01:39.000000Z\n",
      "      handler_name    : ISO Media file produced by Google Inc. Created on: 12/27/2013.\n",
      "      vendor_id       : [0][0][0][0]\n",
      "Stream mapping:\n",
      "  Stream #0:0 -> #0:0 (h264 (native) -> h264 (libx264))\n",
      "  Stream #0:1 -> #0:1 (aac (native) -> aac (native))\n",
      "Press [q] to stop, [?] for help\n",
      "[libx264 @ 0x5637294ac040] using cpu capabilities: MMX2 SSE2Fast SSSE3 SSE4.2 AVX FMA3 BMI2 AVX2\n",
      "[libx264 @ 0x5637294ac040] profile High, level 3.0, 4:2:0, 8-bit\n",
      "[libx264 @ 0x5637294ac040] 264 - core 163 r3060 5db6aa6 - H.264/MPEG-4 AVC codec - Copyleft 2003-2021 - http://www.videolan.org/x264.html - options: cabac=1 ref=3 deblock=1:0:0 analyse=0x3:0x113 me=hex subme=7 psy=1 psy_rd=1.00:0.00 mixed_ref=1 me_range=16 chroma_me=1 trellis=1 8x8dct=1 cqm=0 deadzone=21,11 fast_pskip=1 chroma_qp_offset=-2 threads=3 lookahead_threads=1 sliced_threads=0 nr=0 decimate=1 interlaced=0 bluray_compat=0 constrained_intra=0 bframes=3 b_pyramid=2 b_adapt=1 b_bias=0 direct=1 weightb=1 open_gop=0 weightp=2 keyint=250 keyint_min=25 scenecut=40 intra_refresh=0 rc_lookahead=40 rc=crf mbtree=1 crf=45.0 qcomp=0.60 qpmin=0 qpmax=69 qpstep=4 ip_ratio=1.40 aq=1:1.00\n",
      "Output #0, mp4, to '/home/ozzom/Videos/resized/선형대수 11강 벡터투영과 최소제곱법.mp4':\n",
      "  Metadata:\n",
      "    major_brand     : mp42\n",
      "    minor_version   : 0\n",
      "    compatible_brands: isommp42\n",
      "    encoder         : Lavf58.76.100\n",
      "  Stream #0:0(und): Video: h264 (avc1 / 0x31637661), yuv420p(progressive), 640x360, q=2-31, 29.97 fps, 30k tbn (default)\n",
      "    Metadata:\n",
      "      creation_time   : 2013-12-28T06:01:39.000000Z\n",
      "      handler_name    : ISO Media file produced by Google Inc. Created on: 12/27/2013.\n",
      "      vendor_id       : [0][0][0][0]\n",
      "      encoder         : Lavc58.134.100 libx264\n",
      "    Side data:\n",
      "      cpb: bitrate max/min/avg: 0/0/0 buffer size: 0 vbv_delay: N/A\n",
      "  Stream #0:1(und): Audio: aac (LC) (mp4a / 0x6134706D), 44100 Hz, stereo, fltp, 128 kb/s (default)\n",
      "    Metadata:\n",
      "      creation_time   : 2013-12-28T06:01:39.000000Z\n",
      "      handler_name    : ISO Media file produced by Google Inc. Created on: 12/27/2013.\n",
      "      vendor_id       : [0][0][0][0]\n",
      "      encoder         : Lavc58.134.100 aac\n",
      "frame=127080 fps=404 q=-1.0 Lsize=   79490kB time=01:10:40.19 bitrate= 153.6kbits/s speed=13.5x    \n",
      "video:8682kB audio:66416kB subtitle:0kB other streams:0kB global headers:0kB muxing overhead: 5.848500%\n",
      "[libx264 @ 0x5637294ac040] frame I:511   Avg QP:38.60  size:  2445\n",
      "[libx264 @ 0x5637294ac040] frame P:37027 Avg QP:45.19  size:   131\n",
      "[libx264 @ 0x5637294ac040] frame B:89542 Avg QP:50.91  size:    31\n",
      "[libx264 @ 0x5637294ac040] consecutive B-frames:  1.8%  2.4% 31.2% 64.6%\n",
      "[libx264 @ 0x5637294ac040] mb I  I16..4: 34.1% 60.8%  5.1%\n",
      "[libx264 @ 0x5637294ac040] mb P  I16..4:  0.5%  0.7%  0.0%  P16..4:  5.2%  0.3%  0.1%  0.0%  0.0%    skip:93.3%\n",
      "[libx264 @ 0x5637294ac040] mb B  I16..4:  0.0%  0.0%  0.0%  B16..8:  1.3%  0.0%  0.0%  direct: 0.0%  skip:98.7%  L0:28.3% L1:71.7% BI: 0.0%\n",
      "[libx264 @ 0x5637294ac040] 8x8 transform intra:61.2% inter:95.0%\n",
      "[libx264 @ 0x5637294ac040] coded y,uvDC,uvAC intra: 9.8% 17.5% 1.9% inter: 0.0% 0.1% 0.0%\n",
      "[libx264 @ 0x5637294ac040] i16 v,h,dc,p: 38% 45%  7% 10%\n",
      "[libx264 @ 0x5637294ac040] i8 v,h,dc,ddl,ddr,vr,hd,vl,hu: 24% 12% 57%  1%  1%  1%  1%  1%  1%\n",
      "[libx264 @ 0x5637294ac040] i4 v,h,dc,ddl,ddr,vr,hd,vl,hu: 33% 32% 18%  3%  3%  4%  4%  3%  3%\n",
      "[libx264 @ 0x5637294ac040] i8c dc,h,v,p: 86%  8%  6%  0%\n",
      "[libx264 @ 0x5637294ac040] Weighted P-Frames: Y:0.1% UV:0.1%\n",
      "[libx264 @ 0x5637294ac040] ref P L0: 77.9%  6.1% 11.8%  4.2%  0.0%\n",
      "[libx264 @ 0x5637294ac040] ref B L0: 89.7%  8.1%  2.2%\n",
      "[libx264 @ 0x5637294ac040] ref B L1: 98.3%  1.7%\n",
      "[libx264 @ 0x5637294ac040] kb/s:16.77\n",
      "[aac @ 0x5637294a7f40] Qavg: 327.048\n",
      "ffmpeg version 4.4.2-0ubuntu0.22.04.1 Copyright (c) 2000-2021 the FFmpeg developers\n",
      "  built with gcc 11 (Ubuntu 11.2.0-19ubuntu1)\n",
      "  configuration: --prefix=/usr --extra-version=0ubuntu0.22.04.1 --toolchain=hardened --libdir=/usr/lib/x86_64-linux-gnu --incdir=/usr/include/x86_64-linux-gnu --arch=amd64 --enable-gpl --disable-stripping --enable-gnutls --enable-ladspa --enable-libaom --enable-libass --enable-libbluray --enable-libbs2b --enable-libcaca --enable-libcdio --enable-libcodec2 --enable-libdav1d --enable-libflite --enable-libfontconfig --enable-libfreetype --enable-libfribidi --enable-libgme --enable-libgsm --enable-libjack --enable-libmp3lame --enable-libmysofa --enable-libopenjpeg --enable-libopenmpt --enable-libopus --enable-libpulse --enable-librabbitmq --enable-librubberband --enable-libshine --enable-libsnappy --enable-libsoxr --enable-libspeex --enable-libsrt --enable-libssh --enable-libtheora --enable-libtwolame --enable-libvidstab --enable-libvorbis --enable-libvpx --enable-libwebp --enable-libx265 --enable-libxml2 --enable-libxvid --enable-libzimg --enable-libzmq --enable-libzvbi --enable-lv2 --enable-omx --enable-openal --enable-opencl --enable-opengl --enable-sdl2 --enable-pocketsphinx --enable-librsvg --enable-libmfx --enable-libdc1394 --enable-libdrm --enable-libiec61883 --enable-chromaprint --enable-frei0r --enable-libx264 --enable-shared\n",
      "  libavutil      56. 70.100 / 56. 70.100\n",
      "  libavcodec     58.134.100 / 58.134.100\n",
      "  libavformat    58. 76.100 / 58. 76.100\n",
      "  libavdevice    58. 13.100 / 58. 13.100\n",
      "  libavfilter     7.110.100 /  7.110.100\n",
      "  libswscale      5.  9.100 /  5.  9.100\n",
      "  libswresample   3.  9.100 /  3.  9.100\n",
      "  libpostproc    55.  9.100 / 55.  9.100\n",
      "Input #0, mov,mp4,m4a,3gp,3g2,mj2, from '/home/ozzom/Videos/LinearAlgebra/선형대수 21강 연립미분방정식과 행렬.mp4':\n",
      "  Metadata:\n",
      "    major_brand     : mp42\n",
      "    minor_version   : 0\n",
      "    compatible_brands: isommp42\n",
      "    creation_time   : 2014-06-08T08:59:38.000000Z\n",
      "  Duration: 00:58:54.40, start: 0.000000, bitrate: 357 kb/s\n",
      "  Stream #0:0(und): Video: h264 (Main) (avc1 / 0x31637661), yuv420p, 640x360 [SAR 1:1 DAR 16:9], 228 kb/s, 29.97 fps, 29.97 tbr, 90k tbn, 59.94 tbc (default)\n",
      "    Metadata:\n",
      "      creation_time   : 2014-06-08T08:59:38.000000Z\n",
      "      handler_name    : ISO Media file produced by Google Inc. Created on: 06/08/2014.\n",
      "      vendor_id       : [0][0][0][0]\n",
      "  Stream #0:1(und): Audio: aac (LC) (mp4a / 0x6134706D), 44100 Hz, stereo, fltp, 125 kb/s (default)\n",
      "    Metadata:\n",
      "      creation_time   : 2014-06-08T08:59:38.000000Z\n",
      "      handler_name    : ISO Media file produced by Google Inc. Created on: 06/08/2014.\n",
      "      vendor_id       : [0][0][0][0]\n",
      "Stream mapping:\n",
      "  Stream #0:0 -> #0:0 (h264 (native) -> h264 (libx264))\n",
      "  Stream #0:1 -> #0:1 (aac (native) -> aac (native))\n",
      "Press [q] to stop, [?] for help\n",
      "[libx264 @ 0x55f358fbf400] using SAR=1/1\n",
      "[libx264 @ 0x55f358fbf400] using cpu capabilities: MMX2 SSE2Fast SSSE3 SSE4.2 AVX FMA3 BMI2 AVX2\n",
      "[libx264 @ 0x55f358fbf400] profile High, level 3.0, 4:2:0, 8-bit\n",
      "[libx264 @ 0x55f358fbf400] 264 - core 163 r3060 5db6aa6 - H.264/MPEG-4 AVC codec - Copyleft 2003-2021 - http://www.videolan.org/x264.html - options: cabac=1 ref=3 deblock=1:0:0 analyse=0x3:0x113 me=hex subme=7 psy=1 psy_rd=1.00:0.00 mixed_ref=1 me_range=16 chroma_me=1 trellis=1 8x8dct=1 cqm=0 deadzone=21,11 fast_pskip=1 chroma_qp_offset=-2 threads=3 lookahead_threads=1 sliced_threads=0 nr=0 decimate=1 interlaced=0 bluray_compat=0 constrained_intra=0 bframes=3 b_pyramid=2 b_adapt=1 b_bias=0 direct=1 weightb=1 open_gop=0 weightp=2 keyint=250 keyint_min=25 scenecut=40 intra_refresh=0 rc_lookahead=40 rc=crf mbtree=1 crf=45.0 qcomp=0.60 qpmin=0 qpmax=69 qpstep=4 ip_ratio=1.40 aq=1:1.00\n",
      "Output #0, mp4, to '/home/ozzom/Videos/resized/선형대수 21강 연립미분방정식과 행렬.mp4':\n",
      "  Metadata:\n",
      "    major_brand     : mp42\n",
      "    minor_version   : 0\n",
      "    compatible_brands: isommp42\n",
      "    encoder         : Lavf58.76.100\n",
      "  Stream #0:0(und): Video: h264 (avc1 / 0x31637661), yuv420p(progressive), 640x360 [SAR 1:1 DAR 16:9], q=2-31, 29.97 fps, 30k tbn (default)\n",
      "    Metadata:\n",
      "      creation_time   : 2014-06-08T08:59:38.000000Z\n",
      "      handler_name    : ISO Media file produced by Google Inc. Created on: 06/08/2014.\n",
      "      vendor_id       : [0][0][0][0]\n",
      "      encoder         : Lavc58.134.100 libx264\n",
      "    Side data:\n",
      "      cpb: bitrate max/min/avg: 0/0/0 buffer size: 0 vbv_delay: N/A\n",
      "  Stream #0:1(und): Audio: aac (LC) (mp4a / 0x6134706D), 44100 Hz, stereo, fltp, 128 kb/s (default)\n",
      "    Metadata:\n",
      "      creation_time   : 2014-06-08T08:59:38.000000Z\n",
      "      handler_name    : ISO Media file produced by Google Inc. Created on: 06/08/2014.\n",
      "      vendor_id       : [0][0][0][0]\n",
      "      encoder         : Lavc58.134.100 aac\n",
      "frame=105927 fps=401 q=-1.0 Lsize=   66306kB time=00:58:54.37 bitrate= 153.7kbits/s speed=13.4x    \n",
      "video:7311kB audio:55323kB subtitle:0kB other streams:0kB global headers:0kB muxing overhead: 5.863361%\n",
      "[libx264 @ 0x55f358fbf400] frame I:426   Avg QP:38.21  size:  2256\n",
      "[libx264 @ 0x55f358fbf400] frame P:37544 Avg QP:44.60  size:   123\n",
      "[libx264 @ 0x55f358fbf400] frame B:67957 Avg QP:50.90  size:    28\n",
      "[libx264 @ 0x55f358fbf400] consecutive B-frames:  3.9% 24.0% 23.4% 48.7%\n",
      "[libx264 @ 0x55f358fbf400] mb I  I16..4: 35.3% 60.5%  4.2%\n",
      "[libx264 @ 0x55f358fbf400] mb P  I16..4:  0.6%  0.9%  0.0%  P16..4:  5.0%  0.2%  0.1%  0.0%  0.0%    skip:93.2%\n",
      "[libx264 @ 0x55f358fbf400] mb B  I16..4:  0.0%  0.0%  0.0%  B16..8:  1.0%  0.0%  0.0%  direct: 0.0%  skip:99.0%  L0:23.1% L1:76.8% BI: 0.0%\n",
      "[libx264 @ 0x55f358fbf400] 8x8 transform intra:61.5% inter:95.2%\n",
      "[libx264 @ 0x55f358fbf400] coded y,uvDC,uvAC intra: 7.6% 15.7% 1.2% inter: 0.0% 0.1% 0.0%\n",
      "[libx264 @ 0x55f358fbf400] i16 v,h,dc,p: 39% 45%  7%  9%\n",
      "[libx264 @ 0x55f358fbf400] i8 v,h,dc,ddl,ddr,vr,hd,vl,hu: 19% 10% 67%  1%  1%  1%  1%  1%  1%\n",
      "[libx264 @ 0x55f358fbf400] i4 v,h,dc,ddl,ddr,vr,hd,vl,hu: 31% 31% 20%  2%  3%  3%  4%  2%  3%\n",
      "[libx264 @ 0x55f358fbf400] i8c dc,h,v,p: 87%  8%  5%  0%\n",
      "[libx264 @ 0x55f358fbf400] Weighted P-Frames: Y:0.1% UV:0.1%\n",
      "[libx264 @ 0x55f358fbf400] ref P L0: 78.6%  7.0% 10.7%  3.7%  0.0%\n",
      "[libx264 @ 0x55f358fbf400] ref B L0: 88.8%  9.2%  2.0%\n",
      "[libx264 @ 0x55f358fbf400] ref B L1: 98.4%  1.6%\n",
      "[libx264 @ 0x55f358fbf400] kb/s:16.94\n",
      "[aac @ 0x55f359080300] Qavg: 362.912\n",
      "ffmpeg version 4.4.2-0ubuntu0.22.04.1 Copyright (c) 2000-2021 the FFmpeg developers\n",
      "  built with gcc 11 (Ubuntu 11.2.0-19ubuntu1)\n",
      "  configuration: --prefix=/usr --extra-version=0ubuntu0.22.04.1 --toolchain=hardened --libdir=/usr/lib/x86_64-linux-gnu --incdir=/usr/include/x86_64-linux-gnu --arch=amd64 --enable-gpl --disable-stripping --enable-gnutls --enable-ladspa --enable-libaom --enable-libass --enable-libbluray --enable-libbs2b --enable-libcaca --enable-libcdio --enable-libcodec2 --enable-libdav1d --enable-libflite --enable-libfontconfig --enable-libfreetype --enable-libfribidi --enable-libgme --enable-libgsm --enable-libjack --enable-libmp3lame --enable-libmysofa --enable-libopenjpeg --enable-libopenmpt --enable-libopus --enable-libpulse --enable-librabbitmq --enable-librubberband --enable-libshine --enable-libsnappy --enable-libsoxr --enable-libspeex --enable-libsrt --enable-libssh --enable-libtheora --enable-libtwolame --enable-libvidstab --enable-libvorbis --enable-libvpx --enable-libwebp --enable-libx265 --enable-libxml2 --enable-libxvid --enable-libzimg --enable-libzmq --enable-libzvbi --enable-lv2 --enable-omx --enable-openal --enable-opencl --enable-opengl --enable-sdl2 --enable-pocketsphinx --enable-librsvg --enable-libmfx --enable-libdc1394 --enable-libdrm --enable-libiec61883 --enable-chromaprint --enable-frei0r --enable-libx264 --enable-shared\n",
      "  libavutil      56. 70.100 / 56. 70.100\n",
      "  libavcodec     58.134.100 / 58.134.100\n",
      "  libavformat    58. 76.100 / 58. 76.100\n",
      "  libavdevice    58. 13.100 / 58. 13.100\n",
      "  libavfilter     7.110.100 /  7.110.100\n",
      "  libswscale      5.  9.100 /  5.  9.100\n",
      "  libswresample   3.  9.100 /  3.  9.100\n",
      "  libpostproc    55.  9.100 / 55.  9.100\n",
      "Input #0, mov,mp4,m4a,3gp,3g2,mj2, from '/home/ozzom/Videos/LinearAlgebra/선형대수 15강 행렬의 판별식.mp4':\n",
      "  Metadata:\n",
      "    major_brand     : mp42\n",
      "    minor_version   : 0\n",
      "    compatible_brands: isommp42\n",
      "    creation_time   : 2013-12-28T20:25:23.000000Z\n",
      "  Duration: 01:10:37.41, start: 0.000000, bitrate: 441 kb/s\n",
      "  Stream #0:0(und): Video: h264 (Main) (avc1 / 0x31637661), yuv420p, 640x360, 312 kb/s, 29.97 fps, 29.97 tbr, 90k tbn, 59.94 tbc (default)\n",
      "    Metadata:\n",
      "      creation_time   : 2013-12-28T20:25:23.000000Z\n",
      "      handler_name    : ISO Media file produced by Google Inc. Created on: 12/28/2013.\n",
      "      vendor_id       : [0][0][0][0]\n",
      "  Stream #0:1(und): Audio: aac (LC) (mp4a / 0x6134706D), 44100 Hz, stereo, fltp, 125 kb/s (default)\n",
      "    Metadata:\n",
      "      creation_time   : 2013-12-28T20:25:23.000000Z\n",
      "      handler_name    : ISO Media file produced by Google Inc. Created on: 12/28/2013.\n",
      "      vendor_id       : [0][0][0][0]\n",
      "File '/home/ozzom/Videos/resized/선형대수 15강 행렬의 판별식.mp4' already exists. Overwrite? [y/N] Not overwriting - exiting\n",
      "ffmpeg version 4.4.2-0ubuntu0.22.04.1 Copyright (c) 2000-2021 the FFmpeg developers\n",
      "  built with gcc 11 (Ubuntu 11.2.0-19ubuntu1)\n",
      "  configuration: --prefix=/usr --extra-version=0ubuntu0.22.04.1 --toolchain=hardened --libdir=/usr/lib/x86_64-linux-gnu --incdir=/usr/include/x86_64-linux-gnu --arch=amd64 --enable-gpl --disable-stripping --enable-gnutls --enable-ladspa --enable-libaom --enable-libass --enable-libbluray --enable-libbs2b --enable-libcaca --enable-libcdio --enable-libcodec2 --enable-libdav1d --enable-libflite --enable-libfontconfig --enable-libfreetype --enable-libfribidi --enable-libgme --enable-libgsm --enable-libjack --enable-libmp3lame --enable-libmysofa --enable-libopenjpeg --enable-libopenmpt --enable-libopus --enable-libpulse --enable-librabbitmq --enable-librubberband --enable-libshine --enable-libsnappy --enable-libsoxr --enable-libspeex --enable-libsrt --enable-libssh --enable-libtheora --enable-libtwolame --enable-libvidstab --enable-libvorbis --enable-libvpx --enable-libwebp --enable-libx265 --enable-libxml2 --enable-libxvid --enable-libzimg --enable-libzmq --enable-libzvbi --enable-lv2 --enable-omx --enable-openal --enable-opencl --enable-opengl --enable-sdl2 --enable-pocketsphinx --enable-librsvg --enable-libmfx --enable-libdc1394 --enable-libdrm --enable-libiec61883 --enable-chromaprint --enable-frei0r --enable-libx264 --enable-shared\n",
      "  libavutil      56. 70.100 / 56. 70.100\n",
      "  libavcodec     58.134.100 / 58.134.100\n",
      "  libavformat    58. 76.100 / 58. 76.100\n",
      "  libavdevice    58. 13.100 / 58. 13.100\n",
      "  libavfilter     7.110.100 /  7.110.100\n",
      "  libswscale      5.  9.100 /  5.  9.100\n",
      "  libswresample   3.  9.100 /  3.  9.100\n",
      "  libpostproc    55.  9.100 / 55.  9.100\n",
      "Input #0, mov,mp4,m4a,3gp,3g2,mj2, from '/home/ozzom/Videos/LinearAlgebra/선형대수 23강 특이값 분할 (SVD).mp4':\n",
      "  Metadata:\n",
      "    major_brand     : mp42\n",
      "    minor_version   : 0\n",
      "    compatible_brands: isommp42\n",
      "    creation_time   : 2015-06-02T09:53:39.000000Z\n",
      "  Duration: 01:19:08.06, start: 0.000000, bitrate: 352 kb/s\n",
      "  Stream #0:0(und): Video: h264 (Main) (avc1 / 0x31637661), yuv420p, 640x360 [SAR 1:1 DAR 16:9], 222 kb/s, 29.97 fps, 29.97 tbr, 90k tbn, 59.94 tbc (default)\n",
      "    Metadata:\n",
      "      creation_time   : 2015-06-02T09:53:39.000000Z\n",
      "      handler_name    : ISO Media file produced by Google Inc. Created on: 06/02/2015.\n",
      "      vendor_id       : [0][0][0][0]\n",
      "  Stream #0:1(und): Audio: aac (LC) (mp4a / 0x6134706D), 44100 Hz, stereo, fltp, 125 kb/s (default)\n",
      "    Metadata:\n",
      "      creation_time   : 2015-06-02T09:53:39.000000Z\n",
      "      handler_name    : ISO Media file produced by Google Inc. Created on: 06/02/2015.\n",
      "      vendor_id       : [0][0][0][0]\n",
      "Stream mapping:\n",
      "  Stream #0:0 -> #0:0 (h264 (native) -> h264 (libx264))\n",
      "  Stream #0:1 -> #0:1 (aac (native) -> aac (native))\n",
      "Press [q] to stop, [?] for help\n",
      "[libx264 @ 0x557226c0e2c0] using SAR=1/1\n",
      "[libx264 @ 0x557226c0e2c0] using cpu capabilities: MMX2 SSE2Fast SSSE3 SSE4.2 AVX FMA3 BMI2 AVX2\n",
      "[libx264 @ 0x557226c0e2c0] profile High, level 3.0, 4:2:0, 8-bit\n",
      "[libx264 @ 0x557226c0e2c0] 264 - core 163 r3060 5db6aa6 - H.264/MPEG-4 AVC codec - Copyleft 2003-2021 - http://www.videolan.org/x264.html - options: cabac=1 ref=3 deblock=1:0:0 analyse=0x3:0x113 me=hex subme=7 psy=1 psy_rd=1.00:0.00 mixed_ref=1 me_range=16 chroma_me=1 trellis=1 8x8dct=1 cqm=0 deadzone=21,11 fast_pskip=1 chroma_qp_offset=-2 threads=3 lookahead_threads=1 sliced_threads=0 nr=0 decimate=1 interlaced=0 bluray_compat=0 constrained_intra=0 bframes=3 b_pyramid=2 b_adapt=1 b_bias=0 direct=1 weightb=1 open_gop=0 weightp=2 keyint=250 keyint_min=25 scenecut=40 intra_refresh=0 rc_lookahead=40 rc=crf mbtree=1 crf=45.0 qcomp=0.60 qpmin=0 qpmax=69 qpstep=4 ip_ratio=1.40 aq=1:1.00\n",
      "Output #0, mp4, to '/home/ozzom/Videos/resized/선형대수 23강 특이값 분할 (SVD).mp4':\n",
      "  Metadata:\n",
      "    major_brand     : mp42\n",
      "    minor_version   : 0\n",
      "    compatible_brands: isommp42\n",
      "    encoder         : Lavf58.76.100\n",
      "  Stream #0:0(und): Video: h264 (avc1 / 0x31637661), yuv420p(progressive), 640x360 [SAR 1:1 DAR 16:9], q=2-31, 29.97 fps, 30k tbn (default)\n",
      "    Metadata:\n",
      "      creation_time   : 2015-06-02T09:53:39.000000Z\n",
      "      handler_name    : ISO Media file produced by Google Inc. Created on: 06/02/2015.\n",
      "      vendor_id       : [0][0][0][0]\n",
      "      encoder         : Lavc58.134.100 libx264\n",
      "    Side data:\n",
      "      cpb: bitrate max/min/avg: 0/0/0 buffer size: 0 vbv_delay: N/A\n",
      "  Stream #0:1(und): Audio: aac (LC) (mp4a / 0x6134706D), 44100 Hz, stereo, fltp, 128 kb/s (default)\n",
      "    Metadata:\n",
      "      creation_time   : 2015-06-02T09:53:39.000000Z\n",
      "      handler_name    : ISO Media file produced by Google Inc. Created on: 06/02/2015.\n",
      "      vendor_id       : [0][0][0][0]\n",
      "      encoder         : Lavc58.134.100 aac\n",
      "frame=142299 fps=359 q=-1.0 Lsize=   89232kB time=01:19:08.03 bitrate= 154.0kbits/s speed=  12x    \n",
      "video:9608kB audio:74664kB subtitle:0kB other streams:0kB global headers:0kB muxing overhead: 5.885502%\n",
      "[libx264 @ 0x557226c0e2c0] frame I:572   Avg QP:37.80  size:  2355\n",
      "[libx264 @ 0x557226c0e2c0] frame P:50215 Avg QP:44.71  size:   113\n",
      "[libx264 @ 0x557226c0e2c0] frame B:91512 Avg QP:50.93  size:    31\n",
      "[libx264 @ 0x557226c0e2c0] consecutive B-frames:  3.8% 25.7% 17.4% 53.2%\n",
      "[libx264 @ 0x557226c0e2c0] mb I  I16..4: 36.5% 58.4%  5.2%\n",
      "[libx264 @ 0x557226c0e2c0] mb P  I16..4:  0.4%  0.6%  0.0%  P16..4:  4.8%  0.2%  0.1%  0.0%  0.0%    skip:94.0%\n",
      "[libx264 @ 0x557226c0e2c0] mb B  I16..4:  0.0%  0.0%  0.0%  B16..8:  1.3%  0.0%  0.0%  direct: 0.0%  skip:98.7%  L0:26.1% L1:73.9% BI: 0.0%\n",
      "[libx264 @ 0x557226c0e2c0] 8x8 transform intra:59.9% inter:93.9%\n",
      "[libx264 @ 0x557226c0e2c0] coded y,uvDC,uvAC intra: 10.0% 13.7% 1.3% inter: 0.0% 0.1% 0.0%\n",
      "[libx264 @ 0x557226c0e2c0] i16 v,h,dc,p: 36% 46%  8%  9%\n",
      "[libx264 @ 0x557226c0e2c0] i8 v,h,dc,ddl,ddr,vr,hd,vl,hu: 23% 12% 59%  1%  1%  1%  1%  1%  1%\n",
      "[libx264 @ 0x557226c0e2c0] i4 v,h,dc,ddl,ddr,vr,hd,vl,hu: 31% 28% 24%  3%  3%  4%  3%  3%  3%\n",
      "[libx264 @ 0x557226c0e2c0] i8c dc,h,v,p: 88%  7%  5%  0%\n",
      "[libx264 @ 0x557226c0e2c0] Weighted P-Frames: Y:0.1% UV:0.1%\n",
      "[libx264 @ 0x557226c0e2c0] ref P L0: 79.4%  7.3%  9.7%  3.6%  0.0%\n",
      "[libx264 @ 0x557226c0e2c0] ref B L0: 87.2% 10.8%  2.0%\n",
      "[libx264 @ 0x557226c0e2c0] ref B L1: 98.3%  1.7%\n",
      "[libx264 @ 0x557226c0e2c0] kb/s:16.58\n",
      "[aac @ 0x557226c12480] Qavg: 387.224\n",
      "ffmpeg version 4.4.2-0ubuntu0.22.04.1 Copyright (c) 2000-2021 the FFmpeg developers\n",
      "  built with gcc 11 (Ubuntu 11.2.0-19ubuntu1)\n",
      "  configuration: --prefix=/usr --extra-version=0ubuntu0.22.04.1 --toolchain=hardened --libdir=/usr/lib/x86_64-linux-gnu --incdir=/usr/include/x86_64-linux-gnu --arch=amd64 --enable-gpl --disable-stripping --enable-gnutls --enable-ladspa --enable-libaom --enable-libass --enable-libbluray --enable-libbs2b --enable-libcaca --enable-libcdio --enable-libcodec2 --enable-libdav1d --enable-libflite --enable-libfontconfig --enable-libfreetype --enable-libfribidi --enable-libgme --enable-libgsm --enable-libjack --enable-libmp3lame --enable-libmysofa --enable-libopenjpeg --enable-libopenmpt --enable-libopus --enable-libpulse --enable-librabbitmq --enable-librubberband --enable-libshine --enable-libsnappy --enable-libsoxr --enable-libspeex --enable-libsrt --enable-libssh --enable-libtheora --enable-libtwolame --enable-libvidstab --enable-libvorbis --enable-libvpx --enable-libwebp --enable-libx265 --enable-libxml2 --enable-libxvid --enable-libzimg --enable-libzmq --enable-libzvbi --enable-lv2 --enable-omx --enable-openal --enable-opencl --enable-opengl --enable-sdl2 --enable-pocketsphinx --enable-librsvg --enable-libmfx --enable-libdc1394 --enable-libdrm --enable-libiec61883 --enable-chromaprint --enable-frei0r --enable-libx264 --enable-shared\n",
      "  libavutil      56. 70.100 / 56. 70.100\n",
      "  libavcodec     58.134.100 / 58.134.100\n",
      "  libavformat    58. 76.100 / 58. 76.100\n",
      "  libavdevice    58. 13.100 / 58. 13.100\n",
      "  libavfilter     7.110.100 /  7.110.100\n",
      "  libswscale      5.  9.100 /  5.  9.100\n",
      "  libswresample   3.  9.100 /  3.  9.100\n",
      "  libpostproc    55.  9.100 / 55.  9.100\n",
      "Input #0, mov,mp4,m4a,3gp,3g2,mj2, from '/home/ozzom/Videos/LinearAlgebra/선형대수 22강 복소행렬과 에르미트 행렬.mp4':\n",
      "  Metadata:\n",
      "    major_brand     : mp42\n",
      "    minor_version   : 0\n",
      "    compatible_brands: isommp42\n",
      "    creation_time   : 2013-12-15T12:56:42.000000Z\n",
      "  Duration: 01:11:28.77, start: 0.000000, bitrate: 465 kb/s\n",
      "  Stream #0:0(und): Video: h264 (Main) (avc1 / 0x31637661), yuv420p, 640x360, 336 kb/s, 29.97 fps, 29.97 tbr, 90k tbn, 59.94 tbc (default)\n",
      "    Metadata:\n",
      "      creation_time   : 2013-12-15T12:56:42.000000Z\n",
      "      handler_name    : ISO Media file produced by Google Inc. Created on: 12/15/2013.\n",
      "      vendor_id       : [0][0][0][0]\n",
      "  Stream #0:1(und): Audio: aac (LC) (mp4a / 0x6134706D), 44100 Hz, stereo, fltp, 125 kb/s (default)\n",
      "    Metadata:\n",
      "      creation_time   : 2013-12-15T12:56:42.000000Z\n",
      "      handler_name    : ISO Media file produced by Google Inc. Created on: 12/15/2013.\n",
      "      vendor_id       : [0][0][0][0]\n",
      "Stream mapping:\n",
      "  Stream #0:0 -> #0:0 (h264 (native) -> h264 (libx264))\n",
      "  Stream #0:1 -> #0:1 (aac (native) -> aac (native))\n",
      "Press [q] to stop, [?] for help\n",
      "[libx264 @ 0x557f936a7940] using cpu capabilities: MMX2 SSE2Fast SSSE3 SSE4.2 AVX FMA3 BMI2 AVX2\n",
      "[libx264 @ 0x557f936a7940] profile High, level 3.0, 4:2:0, 8-bit\n",
      "[libx264 @ 0x557f936a7940] 264 - core 163 r3060 5db6aa6 - H.264/MPEG-4 AVC codec - Copyleft 2003-2021 - http://www.videolan.org/x264.html - options: cabac=1 ref=3 deblock=1:0:0 analyse=0x3:0x113 me=hex subme=7 psy=1 psy_rd=1.00:0.00 mixed_ref=1 me_range=16 chroma_me=1 trellis=1 8x8dct=1 cqm=0 deadzone=21,11 fast_pskip=1 chroma_qp_offset=-2 threads=3 lookahead_threads=1 sliced_threads=0 nr=0 decimate=1 interlaced=0 bluray_compat=0 constrained_intra=0 bframes=3 b_pyramid=2 b_adapt=1 b_bias=0 direct=1 weightb=1 open_gop=0 weightp=2 keyint=250 keyint_min=25 scenecut=40 intra_refresh=0 rc_lookahead=40 rc=crf mbtree=1 crf=45.0 qcomp=0.60 qpmin=0 qpmax=69 qpstep=4 ip_ratio=1.40 aq=1:1.00\n",
      "Output #0, mp4, to '/home/ozzom/Videos/resized/선형대수 22강 복소행렬과 에르미트 행렬.mp4':\n",
      "  Metadata:\n",
      "    major_brand     : mp42\n",
      "    minor_version   : 0\n",
      "    compatible_brands: isommp42\n",
      "    encoder         : Lavf58.76.100\n",
      "  Stream #0:0(und): Video: h264 (avc1 / 0x31637661), yuv420p(progressive), 640x360, q=2-31, 29.97 fps, 30k tbn (default)\n",
      "    Metadata:\n",
      "      creation_time   : 2013-12-15T12:56:42.000000Z\n",
      "      handler_name    : ISO Media file produced by Google Inc. Created on: 12/15/2013.\n",
      "      vendor_id       : [0][0][0][0]\n",
      "      encoder         : Lavc58.134.100 libx264\n",
      "    Side data:\n",
      "      cpb: bitrate max/min/avg: 0/0/0 buffer size: 0 vbv_delay: N/A\n",
      "  Stream #0:1(und): Audio: aac (LC) (mp4a / 0x6134706D), 44100 Hz, stereo, fltp, 128 kb/s (default)\n",
      "    Metadata:\n",
      "      creation_time   : 2013-12-15T12:56:42.000000Z\n",
      "      handler_name    : ISO Media file produced by Google Inc. Created on: 12/15/2013.\n",
      "      vendor_id       : [0][0][0][0]\n",
      "      encoder         : Lavc58.134.100 aac\n",
      "frame=128534 fps=383 q=-1.0 Lsize=   79347kB time=01:11:28.74 bitrate= 151.6kbits/s speed=12.8x    \n",
      "video:7740kB audio:67169kB subtitle:0kB other streams:0kB global headers:0kB muxing overhead: 5.925474%\n",
      "[libx264 @ 0x557f936a7940] frame I:517   Avg QP:38.15  size:  2181\n",
      "[libx264 @ 0x557f936a7940] frame P:38581 Avg QP:45.08  size:   111\n",
      "[libx264 @ 0x557f936a7940] frame B:89436 Avg QP:50.93  size:    28\n",
      "[libx264 @ 0x557f936a7940] consecutive B-frames:  2.6%  3.4% 31.2% 62.8%\n",
      "[libx264 @ 0x557f936a7940] mb I  I16..4: 36.5% 59.0%  4.5%\n",
      "[libx264 @ 0x557f936a7940] mb P  I16..4:  0.4%  0.6%  0.0%  P16..4:  4.6%  0.2%  0.1%  0.0%  0.0%    skip:94.1%\n",
      "[libx264 @ 0x557f936a7940] mb B  I16..4:  0.0%  0.0%  0.0%  B16..8:  1.0%  0.0%  0.0%  direct: 0.0%  skip:99.0%  L0:27.6% L1:72.3% BI: 0.0%\n",
      "[libx264 @ 0x557f936a7940] 8x8 transform intra:60.6% inter:94.0%\n",
      "[libx264 @ 0x557f936a7940] coded y,uvDC,uvAC intra: 9.3% 13.9% 1.2% inter: 0.0% 0.1% 0.0%\n",
      "[libx264 @ 0x557f936a7940] i16 v,h,dc,p: 33% 52%  6%  8%\n",
      "[libx264 @ 0x557f936a7940] i8 v,h,dc,ddl,ddr,vr,hd,vl,hu: 22% 14% 57%  1%  1%  1%  1%  1%  1%\n",
      "[libx264 @ 0x557f936a7940] i4 v,h,dc,ddl,ddr,vr,hd,vl,hu: 25% 36% 21%  3%  3%  3%  3%  2%  4%\n",
      "[libx264 @ 0x557f936a7940] i8c dc,h,v,p: 88%  8%  4%  0%\n",
      "[libx264 @ 0x557f936a7940] Weighted P-Frames: Y:0.2% UV:0.1%\n",
      "[libx264 @ 0x557f936a7940] ref P L0: 79.2%  7.7%  9.6%  3.5%  0.0%\n",
      "[libx264 @ 0x557f936a7940] ref B L0: 87.8%  9.7%  2.4%\n",
      "[libx264 @ 0x557f936a7940] ref B L1: 98.0%  2.0%\n",
      "[libx264 @ 0x557f936a7940] kb/s:14.78\n",
      "[aac @ 0x557f93770480] Qavg: 369.013\n",
      "ffmpeg version 4.4.2-0ubuntu0.22.04.1 Copyright (c) 2000-2021 the FFmpeg developers\n",
      "  built with gcc 11 (Ubuntu 11.2.0-19ubuntu1)\n",
      "  configuration: --prefix=/usr --extra-version=0ubuntu0.22.04.1 --toolchain=hardened --libdir=/usr/lib/x86_64-linux-gnu --incdir=/usr/include/x86_64-linux-gnu --arch=amd64 --enable-gpl --disable-stripping --enable-gnutls --enable-ladspa --enable-libaom --enable-libass --enable-libbluray --enable-libbs2b --enable-libcaca --enable-libcdio --enable-libcodec2 --enable-libdav1d --enable-libflite --enable-libfontconfig --enable-libfreetype --enable-libfribidi --enable-libgme --enable-libgsm --enable-libjack --enable-libmp3lame --enable-libmysofa --enable-libopenjpeg --enable-libopenmpt --enable-libopus --enable-libpulse --enable-librabbitmq --enable-librubberband --enable-libshine --enable-libsnappy --enable-libsoxr --enable-libspeex --enable-libsrt --enable-libssh --enable-libtheora --enable-libtwolame --enable-libvidstab --enable-libvorbis --enable-libvpx --enable-libwebp --enable-libx265 --enable-libxml2 --enable-libxvid --enable-libzimg --enable-libzmq --enable-libzvbi --enable-lv2 --enable-omx --enable-openal --enable-opencl --enable-opengl --enable-sdl2 --enable-pocketsphinx --enable-librsvg --enable-libmfx --enable-libdc1394 --enable-libdrm --enable-libiec61883 --enable-chromaprint --enable-frei0r --enable-libx264 --enable-shared\n",
      "  libavutil      56. 70.100 / 56. 70.100\n",
      "  libavcodec     58.134.100 / 58.134.100\n",
      "  libavformat    58. 76.100 / 58. 76.100\n",
      "  libavdevice    58. 13.100 / 58. 13.100\n",
      "  libavfilter     7.110.100 /  7.110.100\n",
      "  libswscale      5.  9.100 /  5.  9.100\n",
      "  libswresample   3.  9.100 /  3.  9.100\n",
      "  libpostproc    55.  9.100 / 55.  9.100\n",
      "Input #0, mov,mp4,m4a,3gp,3g2,mj2, from '/home/ozzom/Videos/LinearAlgebra/선형대수 19강 차분방정식과 고유값.mp4':\n",
      "  Metadata:\n",
      "    major_brand     : mp42\n",
      "    minor_version   : 0\n",
      "    compatible_brands: isommp42\n",
      "    creation_time   : 2013-12-28T16:42:19.000000Z\n",
      "  Duration: 01:11:45.58, start: 0.000000, bitrate: 455 kb/s\n",
      "  Stream #0:0(und): Video: h264 (Main) (avc1 / 0x31637661), yuv420p, 640x360, 326 kb/s, 29.97 fps, 29.97 tbr, 90k tbn, 59.94 tbc (default)\n",
      "    Metadata:\n",
      "      creation_time   : 2013-12-28T16:42:19.000000Z\n",
      "      handler_name    : ISO Media file produced by Google Inc. Created on: 12/28/2013.\n",
      "      vendor_id       : [0][0][0][0]\n",
      "  Stream #0:1(und): Audio: aac (LC) (mp4a / 0x6134706D), 44100 Hz, stereo, fltp, 125 kb/s (default)\n",
      "    Metadata:\n",
      "      creation_time   : 2013-12-28T16:42:19.000000Z\n",
      "      handler_name    : ISO Media file produced by Google Inc. Created on: 12/28/2013.\n",
      "      vendor_id       : [0][0][0][0]\n",
      "Stream mapping:\n",
      "  Stream #0:0 -> #0:0 (h264 (native) -> h264 (libx264))\n",
      "  Stream #0:1 -> #0:1 (aac (native) -> aac (native))\n",
      "Press [q] to stop, [?] for help\n",
      "[libx264 @ 0x555cb04ef500] using cpu capabilities: MMX2 SSE2Fast SSSE3 SSE4.2 AVX FMA3 BMI2 AVX2\n",
      "[libx264 @ 0x555cb04ef500] profile High, level 3.0, 4:2:0, 8-bit\n",
      "[libx264 @ 0x555cb04ef500] 264 - core 163 r3060 5db6aa6 - H.264/MPEG-4 AVC codec - Copyleft 2003-2021 - http://www.videolan.org/x264.html - options: cabac=1 ref=3 deblock=1:0:0 analyse=0x3:0x113 me=hex subme=7 psy=1 psy_rd=1.00:0.00 mixed_ref=1 me_range=16 chroma_me=1 trellis=1 8x8dct=1 cqm=0 deadzone=21,11 fast_pskip=1 chroma_qp_offset=-2 threads=3 lookahead_threads=1 sliced_threads=0 nr=0 decimate=1 interlaced=0 bluray_compat=0 constrained_intra=0 bframes=3 b_pyramid=2 b_adapt=1 b_bias=0 direct=1 weightb=1 open_gop=0 weightp=2 keyint=250 keyint_min=25 scenecut=40 intra_refresh=0 rc_lookahead=40 rc=crf mbtree=1 crf=45.0 qcomp=0.60 qpmin=0 qpmax=69 qpstep=4 ip_ratio=1.40 aq=1:1.00\n",
      "Output #0, mp4, to '/home/ozzom/Videos/resized/선형대수 19강 차분방정식과 고유값.mp4':\n",
      "  Metadata:\n",
      "    major_brand     : mp42\n",
      "    minor_version   : 0\n",
      "    compatible_brands: isommp42\n",
      "    encoder         : Lavf58.76.100\n",
      "  Stream #0:0(und): Video: h264 (avc1 / 0x31637661), yuv420p(progressive), 640x360, q=2-31, 29.97 fps, 30k tbn (default)\n",
      "    Metadata:\n",
      "      creation_time   : 2013-12-28T16:42:19.000000Z\n",
      "      handler_name    : ISO Media file produced by Google Inc. Created on: 12/28/2013.\n",
      "      vendor_id       : [0][0][0][0]\n",
      "      encoder         : Lavc58.134.100 libx264\n",
      "    Side data:\n",
      "      cpb: bitrate max/min/avg: 0/0/0 buffer size: 0 vbv_delay: N/A\n",
      "  Stream #0:1(und): Audio: aac (LC) (mp4a / 0x6134706D), 44100 Hz, stereo, fltp, 128 kb/s (default)\n",
      "    Metadata:\n",
      "      creation_time   : 2013-12-28T16:42:19.000000Z\n",
      "      handler_name    : ISO Media file produced by Google Inc. Created on: 12/28/2013.\n",
      "      vendor_id       : [0][0][0][0]\n",
      "      encoder         : Lavc58.134.100 aac\n",
      "av_interleaved_write_frame(): No space left on device:41.64 bitrate= 144.3kbits/s speed=12.4x    \n",
      "    Last message repeated 1 times\n",
      "Error writing trailer of /home/ozzom/Videos/resized/선형대수 19강 차분방정식과 고유값.mp4: No space left on device\n",
      "frame=58817 fps=370 q=51.0 Lsize=   34560kB time=00:32:42.13 bitrate= 144.3kbits/s speed=12.4x    \n",
      "video:4148kB audio:30689kB subtitle:0kB other streams:0kB global headers:0kB muxing overhead: unknown\n",
      "[libx264 @ 0x555cb04ef500] frame I:238   Avg QP:38.06  size:  2169\n",
      "[libx264 @ 0x555cb04ef500] frame P:17051 Avg QP:44.57  size:   138\n",
      "[libx264 @ 0x555cb04ef500] frame B:41528 Avg QP:50.85  size:    33\n",
      "[libx264 @ 0x555cb04ef500] consecutive B-frames:  1.8%  2.5% 29.4% 66.3%\n",
      "[libx264 @ 0x555cb04ef500] mb I  I16..4: 36.7% 58.7%  4.6%\n",
      "[libx264 @ 0x555cb04ef500] mb P  I16..4:  0.6%  1.1%  0.0%  P16..4:  5.4%  0.2%  0.1%  0.0%  0.0%    skip:92.5%\n",
      "[libx264 @ 0x555cb04ef500] mb B  I16..4:  0.0%  0.0%  0.0%  B16..8:  1.4%  0.0%  0.0%  direct: 0.0%  skip:98.5%  L0:29.2% L1:70.8% BI: 0.0%\n",
      "[libx264 @ 0x555cb04ef500] 8x8 transform intra:61.6% inter:93.8%\n",
      "[libx264 @ 0x555cb04ef500] coded y,uvDC,uvAC intra: 7.0% 15.2% 1.2% inter: 0.0% 0.1% 0.0%\n",
      "[libx264 @ 0x555cb04ef500] i16 v,h,dc,p: 36% 48%  7%  9%\n",
      "[libx264 @ 0x555cb04ef500] i8 v,h,dc,ddl,ddr,vr,hd,vl,hu: 17%  9% 69%  1%  1%  1%  1%  1%  1%\n",
      "[libx264 @ 0x555cb04ef500] i4 v,h,dc,ddl,ddr,vr,hd,vl,hu: 29% 29% 24%  3%  3%  3%  4%  3%  3%\n",
      "[libx264 @ 0x555cb04ef500] i8c dc,h,v,p: 89%  7%  5%  0%\n",
      "[libx264 @ 0x555cb04ef500] Weighted P-Frames: Y:0.1% UV:0.1%\n",
      "[libx264 @ 0x555cb04ef500] ref P L0: 77.7%  7.0% 11.2%  4.1%  0.0%\n",
      "[libx264 @ 0x555cb04ef500] ref B L0: 89.3%  8.6%  2.2%\n",
      "[libx264 @ 0x555cb04ef500] ref B L1: 97.9%  2.1%\n",
      "[libx264 @ 0x555cb04ef500] kb/s:17.33\n",
      "[aac @ 0x555cb05b3c00] Qavg: 429.448\n",
      "Conversion failed!\n",
      "ffmpeg version 4.4.2-0ubuntu0.22.04.1 Copyright (c) 2000-2021 the FFmpeg developers\n",
      "  built with gcc 11 (Ubuntu 11.2.0-19ubuntu1)\n",
      "  configuration: --prefix=/usr --extra-version=0ubuntu0.22.04.1 --toolchain=hardened --libdir=/usr/lib/x86_64-linux-gnu --incdir=/usr/include/x86_64-linux-gnu --arch=amd64 --enable-gpl --disable-stripping --enable-gnutls --enable-ladspa --enable-libaom --enable-libass --enable-libbluray --enable-libbs2b --enable-libcaca --enable-libcdio --enable-libcodec2 --enable-libdav1d --enable-libflite --enable-libfontconfig --enable-libfreetype --enable-libfribidi --enable-libgme --enable-libgsm --enable-libjack --enable-libmp3lame --enable-libmysofa --enable-libopenjpeg --enable-libopenmpt --enable-libopus --enable-libpulse --enable-librabbitmq --enable-librubberband --enable-libshine --enable-libsnappy --enable-libsoxr --enable-libspeex --enable-libsrt --enable-libssh --enable-libtheora --enable-libtwolame --enable-libvidstab --enable-libvorbis --enable-libvpx --enable-libwebp --enable-libx265 --enable-libxml2 --enable-libxvid --enable-libzimg --enable-libzmq --enable-libzvbi --enable-lv2 --enable-omx --enable-openal --enable-opencl --enable-opengl --enable-sdl2 --enable-pocketsphinx --enable-librsvg --enable-libmfx --enable-libdc1394 --enable-libdrm --enable-libiec61883 --enable-chromaprint --enable-frei0r --enable-libx264 --enable-shared\n",
      "  libavutil      56. 70.100 / 56. 70.100\n",
      "  libavcodec     58.134.100 / 58.134.100\n",
      "  libavformat    58. 76.100 / 58. 76.100\n",
      "  libavdevice    58. 13.100 / 58. 13.100\n",
      "  libavfilter     7.110.100 /  7.110.100\n",
      "  libswscale      5.  9.100 /  5.  9.100\n",
      "  libswresample   3.  9.100 /  3.  9.100\n",
      "  libpostproc    55.  9.100 / 55.  9.100\n",
      "Input #0, mov,mp4,m4a,3gp,3g2,mj2, from '/home/ozzom/Videos/LinearAlgebra/선형대수 13강 일반최소제곱법과 QR 분할.mp4':\n",
      "  Metadata:\n",
      "    major_brand     : mp42\n",
      "    minor_version   : 0\n",
      "    compatible_brands: isommp42\n",
      "    creation_time   : 2013-12-28T23:31:38.000000Z\n",
      "  Duration: 01:15:23.36, start: 0.000000, bitrate: 443 kb/s\n",
      "  Stream #0:0(und): Video: h264 (Main) (avc1 / 0x31637661), yuv420p, 640x360, 314 kb/s, 29.97 fps, 29.97 tbr, 90k tbn, 59.94 tbc (default)\n",
      "    Metadata:\n",
      "      creation_time   : 2013-12-28T23:31:38.000000Z\n",
      "      handler_name    : ISO Media file produced by Google Inc. Created on: 12/28/2013.\n",
      "      vendor_id       : [0][0][0][0]\n",
      "  Stream #0:1(und): Audio: aac (LC) (mp4a / 0x6134706D), 44100 Hz, stereo, fltp, 125 kb/s (default)\n",
      "    Metadata:\n",
      "      creation_time   : 2013-12-28T23:31:38.000000Z\n",
      "      handler_name    : ISO Media file produced by Google Inc. Created on: 12/28/2013.\n",
      "      vendor_id       : [0][0][0][0]\n",
      "Stream mapping:\n",
      "  Stream #0:0 -> #0:0 (h264 (native) -> h264 (libx264))\n",
      "  Stream #0:1 -> #0:1 (aac (native) -> aac (native))\n",
      "Press [q] to stop, [?] for help\n",
      "[libx264 @ 0x5597d849bec0] using cpu capabilities: MMX2 SSE2Fast SSSE3 SSE4.2 AVX FMA3 BMI2 AVX2\n",
      "[libx264 @ 0x5597d849bec0] profile High, level 3.0, 4:2:0, 8-bit\n",
      "[libx264 @ 0x5597d849bec0] 264 - core 163 r3060 5db6aa6 - H.264/MPEG-4 AVC codec - Copyleft 2003-2021 - http://www.videolan.org/x264.html - options: cabac=1 ref=3 deblock=1:0:0 analyse=0x3:0x113 me=hex subme=7 psy=1 psy_rd=1.00:0.00 mixed_ref=1 me_range=16 chroma_me=1 trellis=1 8x8dct=1 cqm=0 deadzone=21,11 fast_pskip=1 chroma_qp_offset=-2 threads=3 lookahead_threads=1 sliced_threads=0 nr=0 decimate=1 interlaced=0 bluray_compat=0 constrained_intra=0 bframes=3 b_pyramid=2 b_adapt=1 b_bias=0 direct=1 weightb=1 open_gop=0 weightp=2 keyint=250 keyint_min=25 scenecut=40 intra_refresh=0 rc_lookahead=40 rc=crf mbtree=1 crf=45.0 qcomp=0.60 qpmin=0 qpmax=69 qpstep=4 ip_ratio=1.40 aq=1:1.00\n",
      "Output #0, mp4, to '/home/ozzom/Videos/resized/선형대수 13강 일반최소제곱법과 QR 분할.mp4':\n",
      "  Metadata:\n",
      "    major_brand     : mp42\n",
      "    minor_version   : 0\n",
      "    compatible_brands: isommp42\n",
      "    encoder         : Lavf58.76.100\n",
      "  Stream #0:0(und): Video: h264 (avc1 / 0x31637661), yuv420p(progressive), 640x360, q=2-31, 29.97 fps, 30k tbn (default)\n",
      "    Metadata:\n",
      "      creation_time   : 2013-12-28T23:31:38.000000Z\n",
      "      handler_name    : ISO Media file produced by Google Inc. Created on: 12/28/2013.\n",
      "      vendor_id       : [0][0][0][0]\n",
      "      encoder         : Lavc58.134.100 libx264\n",
      "    Side data:\n",
      "      cpb: bitrate max/min/avg: 0/0/0 buffer size: 0 vbv_delay: N/A\n",
      "  Stream #0:1(und): Audio: aac (LC) (mp4a / 0x6134706D), 44100 Hz, stereo, fltp, 128 kb/s (default)\n",
      "    Metadata:\n",
      "      creation_time   : 2013-12-28T23:31:38.000000Z\n",
      "      handler_name    : ISO Media file produced by Google Inc. Created on: 12/28/2013.\n",
      "      vendor_id       : [0][0][0][0]\n",
      "      encoder         : Lavc58.134.100 aac\n",
      "av_interleaved_write_frame(): No space left on device:03.12 bitrate= 146.1kbits/s speed=11.7x    \n",
      "    Last message repeated 1 times\n",
      "Error writing trailer of /home/ozzom/Videos/resized/선형대수 13강 일반최소제곱법과 QR 분할.mp4: No space left on device\n",
      "frame=57723 fps=351 q=51.0 Lsize=   34304kB time=00:32:05.90 bitrate= 145.9kbits/s speed=11.7x    \n",
      "video:4472kB audio:30112kB subtitle:0kB other streams:0kB global headers:0kB muxing overhead: unknown\n",
      "[libx264 @ 0x5597d849bec0] frame I:233   Avg QP:38.22  size:  2437\n",
      "[libx264 @ 0x5597d849bec0] frame P:16881 Avg QP:44.78  size:   149\n",
      "[libx264 @ 0x5597d849bec0] frame B:40609 Avg QP:50.86  size:    37\n",
      "[libx264 @ 0x5597d849bec0] consecutive B-frames:  2.0%  3.3% 27.5% 67.2%\n",
      "[libx264 @ 0x5597d849bec0] mb I  I16..4: 35.0% 59.1%  5.9%\n",
      "[libx264 @ 0x5597d849bec0] mb P  I16..4:  0.5%  1.0%  0.0%  P16..4:  5.9%  0.3%  0.1%  0.0%  0.0%    skip:92.1%\n",
      "[libx264 @ 0x5597d849bec0] mb B  I16..4:  0.0%  0.0%  0.0%  B16..8:  1.8%  0.0%  0.0%  direct: 0.0%  skip:98.2%  L0:29.8% L1:70.2% BI: 0.0%\n",
      "[libx264 @ 0x5597d849bec0] 8x8 transform intra:63.1% inter:94.3%\n",
      "[libx264 @ 0x5597d849bec0] coded y,uvDC,uvAC intra: 8.6% 16.7% 1.9% inter: 0.0% 0.1% 0.0%\n",
      "[libx264 @ 0x5597d849bec0] i16 v,h,dc,p: 37% 44%  9% 10%\n",
      "[libx264 @ 0x5597d849bec0] i8 v,h,dc,ddl,ddr,vr,hd,vl,hu: 18%  9% 66%  1%  1%  1%  1%  1%  1%\n",
      "[libx264 @ 0x5597d849bec0] i4 v,h,dc,ddl,ddr,vr,hd,vl,hu: 31% 29% 22%  3%  2%  3%  4%  3%  3%\n",
      "[libx264 @ 0x5597d849bec0] i8c dc,h,v,p: 88%  7%  5%  0%\n",
      "[libx264 @ 0x5597d849bec0] Weighted P-Frames: Y:0.1% UV:0.1%\n",
      "[libx264 @ 0x5597d849bec0] ref P L0: 77.0%  6.6% 11.9%  4.5%  0.0%\n",
      "[libx264 @ 0x5597d849bec0] ref B L0: 89.3%  8.4%  2.4%\n",
      "[libx264 @ 0x5597d849bec0] ref B L1: 98.1%  1.9%\n",
      "[libx264 @ 0x5597d849bec0] kb/s:19.04\n",
      "[aac @ 0x5597d849d780] Qavg: 436.970\n",
      "Conversion failed!\n",
      "ffmpeg version 4.4.2-0ubuntu0.22.04.1 Copyright (c) 2000-2021 the FFmpeg developers\n",
      "  built with gcc 11 (Ubuntu 11.2.0-19ubuntu1)\n",
      "  configuration: --prefix=/usr --extra-version=0ubuntu0.22.04.1 --toolchain=hardened --libdir=/usr/lib/x86_64-linux-gnu --incdir=/usr/include/x86_64-linux-gnu --arch=amd64 --enable-gpl --disable-stripping --enable-gnutls --enable-ladspa --enable-libaom --enable-libass --enable-libbluray --enable-libbs2b --enable-libcaca --enable-libcdio --enable-libcodec2 --enable-libdav1d --enable-libflite --enable-libfontconfig --enable-libfreetype --enable-libfribidi --enable-libgme --enable-libgsm --enable-libjack --enable-libmp3lame --enable-libmysofa --enable-libopenjpeg --enable-libopenmpt --enable-libopus --enable-libpulse --enable-librabbitmq --enable-librubberband --enable-libshine --enable-libsnappy --enable-libsoxr --enable-libspeex --enable-libsrt --enable-libssh --enable-libtheora --enable-libtwolame --enable-libvidstab --enable-libvorbis --enable-libvpx --enable-libwebp --enable-libx265 --enable-libxml2 --enable-libxvid --enable-libzimg --enable-libzmq --enable-libzvbi --enable-lv2 --enable-omx --enable-openal --enable-opencl --enable-opengl --enable-sdl2 --enable-pocketsphinx --enable-librsvg --enable-libmfx --enable-libdc1394 --enable-libdrm --enable-libiec61883 --enable-chromaprint --enable-frei0r --enable-libx264 --enable-shared\n",
      "  libavutil      56. 70.100 / 56. 70.100\n",
      "  libavcodec     58.134.100 / 58.134.100\n",
      "  libavformat    58. 76.100 / 58. 76.100\n",
      "  libavdevice    58. 13.100 / 58. 13.100\n",
      "  libavfilter     7.110.100 /  7.110.100\n",
      "  libswscale      5.  9.100 /  5.  9.100\n",
      "  libswresample   3.  9.100 /  3.  9.100\n",
      "  libpostproc    55.  9.100 / 55.  9.100\n",
      "Input #0, mov,mp4,m4a,3gp,3g2,mj2, from '/home/ozzom/Videos/LinearAlgebra/선형대수 14강 함수 공간.mp4':\n",
      "  Metadata:\n",
      "    major_brand     : mp42\n",
      "    minor_version   : 0\n",
      "    compatible_brands: isommp42\n",
      "    creation_time   : 2021-07-31T21:08:36.000000Z\n",
      "  Duration: 00:56:06.68, start: 0.000000, bitrate: 232 kb/s\n",
      "  Stream #0:0(und): Video: h264 (Main) (avc1 / 0x31637661), yuv420p(tv, bt709), 640x360 [SAR 1:1 DAR 16:9], 100 kb/s, 29.97 fps, 29.97 tbr, 30k tbn, 59.94 tbc (default)\n",
      "    Metadata:\n",
      "      creation_time   : 2021-07-31T21:08:36.000000Z\n",
      "      handler_name    : ISO Media file produced by Google Inc. Created on: 07/31/2021.\n",
      "      vendor_id       : [0][0][0][0]\n",
      "  Stream #0:1(eng): Audio: aac (LC) (mp4a / 0x6134706D), 44100 Hz, stereo, fltp, 128 kb/s (default)\n",
      "    Metadata:\n",
      "      creation_time   : 2021-07-31T21:08:36.000000Z\n",
      "      handler_name    : ISO Media file produced by Google Inc. Created on: 07/31/2021.\n",
      "      vendor_id       : [0][0][0][0]\n",
      "Stream mapping:\n",
      "  Stream #0:0 -> #0:0 (h264 (native) -> h264 (libx264))\n",
      "  Stream #0:1 -> #0:1 (aac (native) -> aac (native))\n",
      "Press [q] to stop, [?] for help\n",
      "[libx264 @ 0x55aec9149540] using SAR=1/1\n",
      "[libx264 @ 0x55aec9149540] using cpu capabilities: MMX2 SSE2Fast SSSE3 SSE4.2 AVX FMA3 BMI2 AVX2\n",
      "[libx264 @ 0x55aec9149540] profile High, level 3.0, 4:2:0, 8-bit\n",
      "[libx264 @ 0x55aec9149540] 264 - core 163 r3060 5db6aa6 - H.264/MPEG-4 AVC codec - Copyleft 2003-2021 - http://www.videolan.org/x264.html - options: cabac=1 ref=3 deblock=1:0:0 analyse=0x3:0x113 me=hex subme=7 psy=1 psy_rd=1.00:0.00 mixed_ref=1 me_range=16 chroma_me=1 trellis=1 8x8dct=1 cqm=0 deadzone=21,11 fast_pskip=1 chroma_qp_offset=-2 threads=3 lookahead_threads=1 sliced_threads=0 nr=0 decimate=1 interlaced=0 bluray_compat=0 constrained_intra=0 bframes=3 b_pyramid=2 b_adapt=1 b_bias=0 direct=1 weightb=1 open_gop=0 weightp=2 keyint=250 keyint_min=25 scenecut=40 intra_refresh=0 rc_lookahead=40 rc=crf mbtree=1 crf=45.0 qcomp=0.60 qpmin=0 qpmax=69 qpstep=4 ip_ratio=1.40 aq=1:1.00\n",
      "Output #0, mp4, to '/home/ozzom/Videos/resized/선형대수 14강 함수 공간.mp4':\n",
      "  Metadata:\n",
      "    major_brand     : mp42\n",
      "    minor_version   : 0\n",
      "    compatible_brands: isommp42\n",
      "    encoder         : Lavf58.76.100\n",
      "  Stream #0:0(und): Video: h264 (avc1 / 0x31637661), yuv420p(tv, bt709, progressive), 640x360 [SAR 1:1 DAR 16:9], q=2-31, 29.97 fps, 30k tbn (default)\n",
      "    Metadata:\n",
      "      creation_time   : 2021-07-31T21:08:36.000000Z\n",
      "      handler_name    : ISO Media file produced by Google Inc. Created on: 07/31/2021.\n",
      "      vendor_id       : [0][0][0][0]\n",
      "      encoder         : Lavc58.134.100 libx264\n",
      "    Side data:\n",
      "      cpb: bitrate max/min/avg: 0/0/0 buffer size: 0 vbv_delay: N/A\n",
      "  Stream #0:1(eng): Audio: aac (LC) (mp4a / 0x6134706D), 44100 Hz, stereo, fltp, 128 kb/s (default)\n",
      "    Metadata:\n",
      "      creation_time   : 2021-07-31T21:08:36.000000Z\n",
      "      handler_name    : ISO Media file produced by Google Inc. Created on: 07/31/2021.\n",
      "      vendor_id       : [0][0][0][0]\n",
      "      encoder         : Lavc58.134.100 aac\n",
      "av_interleaved_write_frame(): No space left on device:23.34 bitrate= 144.7kbits/s speed=12.7x    \n",
      "Error writing trailer of /home/ozzom/Videos/resized/선형대수 14강 함수 공간.mp4: No space left on device\n",
      "frame=44038 fps=382 q=51.0 Lsize=   25856kB time=00:24:28.96 bitrate= 144.2kbits/s speed=12.7x    \n",
      "video:3176kB audio:22956kB subtitle:0kB other streams:0kB global headers:0kB muxing overhead: unknown\n",
      "[libx264 @ 0x55aec9149540] frame I:179   Avg QP:36.97  size:  2248\n",
      "[libx264 @ 0x55aec9149540] frame P:14470 Avg QP:44.80  size:   134\n",
      "[libx264 @ 0x55aec9149540] frame B:29389 Avg QP:50.80  size:    31\n",
      "[libx264 @ 0x55aec9149540] consecutive B-frames:  1.7% 18.5% 28.4% 51.4%\n",
      "[libx264 @ 0x55aec9149540] mb I  I16..4: 39.8% 55.7%  4.6%\n",
      "[libx264 @ 0x55aec9149540] mb P  I16..4:  0.5%  1.1%  0.0%  P16..4:  5.1%  0.3%  0.1%  0.0%  0.0%    skip:93.0%\n",
      "[libx264 @ 0x55aec9149540] mb B  I16..4:  0.0%  0.0%  0.0%  B16..8:  1.3%  0.0%  0.0%  direct: 0.0%  skip:98.7%  L0:29.4% L1:70.6% BI: 0.0%\n",
      "[libx264 @ 0x55aec9149540] 8x8 transform intra:61.6% inter:94.0%\n",
      "[libx264 @ 0x55aec9149540] coded y,uvDC,uvAC intra: 7.2% 14.5% 1.2% inter: 0.0% 0.1% 0.0%\n",
      "[libx264 @ 0x55aec9149540] i16 v,h,dc,p: 37% 48%  7%  9%\n",
      "[libx264 @ 0x55aec9149540] i8 v,h,dc,ddl,ddr,vr,hd,vl,hu: 16% 11% 67%  1%  1%  1%  1%  1%  1%\n",
      "[libx264 @ 0x55aec9149540] i4 v,h,dc,ddl,ddr,vr,hd,vl,hu: 27% 34% 22%  3%  2%  3%  3%  3%  3%\n",
      "[libx264 @ 0x55aec9149540] i8c dc,h,v,p: 86%  8%  5%  0%\n",
      "[libx264 @ 0x55aec9149540] Weighted P-Frames: Y:0.1% UV:0.1%\n",
      "[libx264 @ 0x55aec9149540] ref P L0: 78.7%  6.9% 10.6%  3.8%  0.0%\n",
      "[libx264 @ 0x55aec9149540] ref B L0: 87.3% 10.3%  2.3%\n",
      "[libx264 @ 0x55aec9149540] ref B L1: 98.2%  1.8%\n",
      "[libx264 @ 0x55aec9149540] kb/s:17.71\n",
      "[aac @ 0x55aec9184300] Qavg: 515.126\n",
      "Conversion failed!\n",
      "ffmpeg version 4.4.2-0ubuntu0.22.04.1 Copyright (c) 2000-2021 the FFmpeg developers\n",
      "  built with gcc 11 (Ubuntu 11.2.0-19ubuntu1)\n",
      "  configuration: --prefix=/usr --extra-version=0ubuntu0.22.04.1 --toolchain=hardened --libdir=/usr/lib/x86_64-linux-gnu --incdir=/usr/include/x86_64-linux-gnu --arch=amd64 --enable-gpl --disable-stripping --enable-gnutls --enable-ladspa --enable-libaom --enable-libass --enable-libbluray --enable-libbs2b --enable-libcaca --enable-libcdio --enable-libcodec2 --enable-libdav1d --enable-libflite --enable-libfontconfig --enable-libfreetype --enable-libfribidi --enable-libgme --enable-libgsm --enable-libjack --enable-libmp3lame --enable-libmysofa --enable-libopenjpeg --enable-libopenmpt --enable-libopus --enable-libpulse --enable-librabbitmq --enable-librubberband --enable-libshine --enable-libsnappy --enable-libsoxr --enable-libspeex --enable-libsrt --enable-libssh --enable-libtheora --enable-libtwolame --enable-libvidstab --enable-libvorbis --enable-libvpx --enable-libwebp --enable-libx265 --enable-libxml2 --enable-libxvid --enable-libzimg --enable-libzmq --enable-libzvbi --enable-lv2 --enable-omx --enable-openal --enable-opencl --enable-opengl --enable-sdl2 --enable-pocketsphinx --enable-librsvg --enable-libmfx --enable-libdc1394 --enable-libdrm --enable-libiec61883 --enable-chromaprint --enable-frei0r --enable-libx264 --enable-shared\n",
      "  libavutil      56. 70.100 / 56. 70.100\n",
      "  libavcodec     58.134.100 / 58.134.100\n",
      "  libavformat    58. 76.100 / 58. 76.100\n",
      "  libavdevice    58. 13.100 / 58. 13.100\n",
      "  libavfilter     7.110.100 /  7.110.100\n",
      "  libswscale      5.  9.100 /  5.  9.100\n",
      "  libswresample   3.  9.100 /  3.  9.100\n",
      "  libpostproc    55.  9.100 / 55.  9.100\n",
      "Input #0, mov,mp4,m4a,3gp,3g2,mj2, from '/home/ozzom/Videos/LinearAlgebra/선형대수 17강 판별식의 응용.mp4':\n",
      "  Metadata:\n",
      "    major_brand     : mp42\n",
      "    minor_version   : 0\n",
      "    compatible_brands: isommp42\n",
      "    creation_time   : 2013-12-29T02:28:20.000000Z\n",
      "  Duration: 00:55:59.30, start: 0.000000, bitrate: 463 kb/s\n",
      "  Stream #0:0(und): Video: h264 (Main) (avc1 / 0x31637661), yuv420p, 640x360, 334 kb/s, 29.97 fps, 29.97 tbr, 90k tbn, 59.94 tbc (default)\n",
      "    Metadata:\n",
      "      creation_time   : 2013-12-29T02:28:20.000000Z\n",
      "      handler_name    : ISO Media file produced by Google Inc. Created on: 12/28/2013.\n",
      "      vendor_id       : [0][0][0][0]\n",
      "  Stream #0:1(und): Audio: aac (LC) (mp4a / 0x6134706D), 44100 Hz, stereo, fltp, 125 kb/s (default)\n",
      "    Metadata:\n",
      "      creation_time   : 2013-12-29T02:28:20.000000Z\n",
      "      handler_name    : ISO Media file produced by Google Inc. Created on: 12/28/2013.\n",
      "      vendor_id       : [0][0][0][0]\n",
      "Stream mapping:\n",
      "  Stream #0:0 -> #0:0 (h264 (native) -> h264 (libx264))\n",
      "  Stream #0:1 -> #0:1 (aac (native) -> aac (native))\n",
      "Press [q] to stop, [?] for help\n",
      "[libx264 @ 0x55be0ec53380] using cpu capabilities: MMX2 SSE2Fast SSSE3 SSE4.2 AVX FMA3 BMI2 AVX2\n",
      "[libx264 @ 0x55be0ec53380] profile High, level 3.0, 4:2:0, 8-bit\n",
      "[libx264 @ 0x55be0ec53380] 264 - core 163 r3060 5db6aa6 - H.264/MPEG-4 AVC codec - Copyleft 2003-2021 - http://www.videolan.org/x264.html - options: cabac=1 ref=3 deblock=1:0:0 analyse=0x3:0x113 me=hex subme=7 psy=1 psy_rd=1.00:0.00 mixed_ref=1 me_range=16 chroma_me=1 trellis=1 8x8dct=1 cqm=0 deadzone=21,11 fast_pskip=1 chroma_qp_offset=-2 threads=3 lookahead_threads=1 sliced_threads=0 nr=0 decimate=1 interlaced=0 bluray_compat=0 constrained_intra=0 bframes=3 b_pyramid=2 b_adapt=1 b_bias=0 direct=1 weightb=1 open_gop=0 weightp=2 keyint=250 keyint_min=25 scenecut=40 intra_refresh=0 rc_lookahead=40 rc=crf mbtree=1 crf=45.0 qcomp=0.60 qpmin=0 qpmax=69 qpstep=4 ip_ratio=1.40 aq=1:1.00\n",
      "Output #0, mp4, to '/home/ozzom/Videos/resized/선형대수 17강 판별식의 응용.mp4':\n",
      "  Metadata:\n",
      "    major_brand     : mp42\n",
      "    minor_version   : 0\n",
      "    compatible_brands: isommp42\n",
      "    encoder         : Lavf58.76.100\n",
      "  Stream #0:0(und): Video: h264 (avc1 / 0x31637661), yuv420p(progressive), 640x360, q=2-31, 29.97 fps, 30k tbn (default)\n",
      "    Metadata:\n",
      "      creation_time   : 2013-12-29T02:28:20.000000Z\n",
      "      handler_name    : ISO Media file produced by Google Inc. Created on: 12/28/2013.\n",
      "      vendor_id       : [0][0][0][0]\n",
      "      encoder         : Lavc58.134.100 libx264\n",
      "    Side data:\n",
      "      cpb: bitrate max/min/avg: 0/0/0 buffer size: 0 vbv_delay: N/A\n",
      "  Stream #0:1(und): Audio: aac (LC) (mp4a / 0x6134706D), 44100 Hz, stereo, fltp, 128 kb/s (default)\n",
      "    Metadata:\n",
      "      creation_time   : 2013-12-29T02:28:20.000000Z\n",
      "      handler_name    : ISO Media file produced by Google Inc. Created on: 12/28/2013.\n",
      "      vendor_id       : [0][0][0][0]\n",
      "      encoder         : Lavc58.134.100 aac\n",
      "av_interleaved_write_frame(): No space left on device:50.65 bitrate= 145.3kbits/s speed=11.3x    \n",
      "    Last message repeated 1 times\n",
      "Error writing trailer of /home/ozzom/Videos/resized/선형대수 17강 판별식의 응용.mp4: No space left on device\n",
      "frame=64560 fps=339 q=51.0 Lsize=   38144kB time=00:35:53.92 bitrate= 145.1kbits/s speed=11.3x    \n",
      "video:4733kB audio:33690kB subtitle:0kB other streams:0kB global headers:0kB muxing overhead: unknown\n",
      "[libx264 @ 0x55be0ec53380] frame I:261   Avg QP:38.30  size:  2195\n",
      "[libx264 @ 0x55be0ec53380] frame P:18624 Avg QP:44.97  size:   146\n",
      "[libx264 @ 0x55be0ec53380] frame B:45675 Avg QP:50.87  size:    34\n",
      "[libx264 @ 0x55be0ec53380] consecutive B-frames:  1.6%  2.5% 29.0% 66.9%\n",
      "[libx264 @ 0x55be0ec53380] mb I  I16..4: 35.2% 60.5%  4.4%\n",
      "[libx264 @ 0x55be0ec53380] mb P  I16..4:  0.6%  1.1%  0.0%  P16..4:  5.7%  0.3%  0.1%  0.0%  0.0%    skip:92.2%\n",
      "[libx264 @ 0x55be0ec53380] mb B  I16..4:  0.0%  0.0%  0.0%  B16..8:  1.5%  0.0%  0.0%  direct: 0.0%  skip:98.5%  L0:29.8% L1:70.2% BI: 0.0%\n",
      "[libx264 @ 0x55be0ec53380] 8x8 transform intra:62.9% inter:94.1%\n",
      "[libx264 @ 0x55be0ec53380] coded y,uvDC,uvAC intra: 7.8% 14.7% 1.4% inter: 0.0% 0.1% 0.0%\n",
      "[libx264 @ 0x55be0ec53380] i16 v,h,dc,p: 38% 47%  7%  8%\n",
      "[libx264 @ 0x55be0ec53380] i8 v,h,dc,ddl,ddr,vr,hd,vl,hu: 20% 10% 63%  1%  1%  1%  1%  1%  1%\n",
      "[libx264 @ 0x55be0ec53380] i4 v,h,dc,ddl,ddr,vr,hd,vl,hu: 30% 31% 21%  3%  3%  3%  4%  3%  3%\n",
      "[libx264 @ 0x55be0ec53380] i8c dc,h,v,p: 88%  7%  4%  0%\n",
      "[libx264 @ 0x55be0ec53380] Weighted P-Frames: Y:0.1% UV:0.1%\n",
      "[libx264 @ 0x55be0ec53380] ref P L0: 77.2%  6.9% 11.7%  4.1%  0.0%\n",
      "[libx264 @ 0x55be0ec53380] ref B L0: 88.1%  9.7%  2.2%\n",
      "[libx264 @ 0x55be0ec53380] ref B L1: 98.0%  2.0%\n",
      "[libx264 @ 0x55be0ec53380] kb/s:18.01\n",
      "[aac @ 0x55be0ec83e00] Qavg: 405.430\n",
      "Conversion failed!\n",
      "ffmpeg version 4.4.2-0ubuntu0.22.04.1 Copyright (c) 2000-2021 the FFmpeg developers\n",
      "  built with gcc 11 (Ubuntu 11.2.0-19ubuntu1)\n",
      "  configuration: --prefix=/usr --extra-version=0ubuntu0.22.04.1 --toolchain=hardened --libdir=/usr/lib/x86_64-linux-gnu --incdir=/usr/include/x86_64-linux-gnu --arch=amd64 --enable-gpl --disable-stripping --enable-gnutls --enable-ladspa --enable-libaom --enable-libass --enable-libbluray --enable-libbs2b --enable-libcaca --enable-libcdio --enable-libcodec2 --enable-libdav1d --enable-libflite --enable-libfontconfig --enable-libfreetype --enable-libfribidi --enable-libgme --enable-libgsm --enable-libjack --enable-libmp3lame --enable-libmysofa --enable-libopenjpeg --enable-libopenmpt --enable-libopus --enable-libpulse --enable-librabbitmq --enable-librubberband --enable-libshine --enable-libsnappy --enable-libsoxr --enable-libspeex --enable-libsrt --enable-libssh --enable-libtheora --enable-libtwolame --enable-libvidstab --enable-libvorbis --enable-libvpx --enable-libwebp --enable-libx265 --enable-libxml2 --enable-libxvid --enable-libzimg --enable-libzmq --enable-libzvbi --enable-lv2 --enable-omx --enable-openal --enable-opencl --enable-opengl --enable-sdl2 --enable-pocketsphinx --enable-librsvg --enable-libmfx --enable-libdc1394 --enable-libdrm --enable-libiec61883 --enable-chromaprint --enable-frei0r --enable-libx264 --enable-shared\n",
      "  libavutil      56. 70.100 / 56. 70.100\n",
      "  libavcodec     58.134.100 / 58.134.100\n",
      "  libavformat    58. 76.100 / 58. 76.100\n",
      "  libavdevice    58. 13.100 / 58. 13.100\n",
      "  libavfilter     7.110.100 /  7.110.100\n",
      "  libswscale      5.  9.100 /  5.  9.100\n",
      "  libswresample   3.  9.100 /  3.  9.100\n",
      "  libpostproc    55.  9.100 / 55.  9.100\n",
      "Input #0, mov,mp4,m4a,3gp,3g2,mj2, from '/home/ozzom/Videos/LinearAlgebra/선형대수 18강 고유값과 고유벡터 및 대각화.mp4':\n",
      "  Metadata:\n",
      "    major_brand     : mp42\n",
      "    minor_version   : 0\n",
      "    compatible_brands: isommp42\n",
      "    creation_time   : 2015-11-20T08:33:18.000000Z\n",
      "  Duration: 01:14:51.90, start: 0.000000, bitrate: 346 kb/s\n",
      "  Stream #0:0(und): Video: h264 (Main) (avc1 / 0x31637661), yuv420p, 640x360 [SAR 1:1 DAR 16:9], 216 kb/s, 29.97 fps, 29.97 tbr, 90k tbn, 59.94 tbc (default)\n",
      "    Metadata:\n",
      "      creation_time   : 2015-11-20T08:33:18.000000Z\n",
      "      handler_name    : ISO Media file produced by Google Inc. Created on: 11/20/2015.\n",
      "      vendor_id       : [0][0][0][0]\n",
      "  Stream #0:1(und): Audio: aac (LC) (mp4a / 0x6134706D), 44100 Hz, stereo, fltp, 125 kb/s (default)\n",
      "    Metadata:\n",
      "      creation_time   : 2015-11-20T08:33:18.000000Z\n",
      "      handler_name    : ISO Media file produced by Google Inc. Created on: 11/20/2015.\n",
      "      vendor_id       : [0][0][0][0]\n",
      "Stream mapping:\n",
      "  Stream #0:0 -> #0:0 (h264 (native) -> h264 (libx264))\n",
      "  Stream #0:1 -> #0:1 (aac (native) -> aac (native))\n",
      "Press [q] to stop, [?] for help\n",
      "[libx264 @ 0x5649b9a11b40] using SAR=1/1\n",
      "[libx264 @ 0x5649b9a11b40] using cpu capabilities: MMX2 SSE2Fast SSSE3 SSE4.2 AVX FMA3 BMI2 AVX2\n",
      "[libx264 @ 0x5649b9a11b40] profile High, level 3.0, 4:2:0, 8-bit\n",
      "[libx264 @ 0x5649b9a11b40] 264 - core 163 r3060 5db6aa6 - H.264/MPEG-4 AVC codec - Copyleft 2003-2021 - http://www.videolan.org/x264.html - options: cabac=1 ref=3 deblock=1:0:0 analyse=0x3:0x113 me=hex subme=7 psy=1 psy_rd=1.00:0.00 mixed_ref=1 me_range=16 chroma_me=1 trellis=1 8x8dct=1 cqm=0 deadzone=21,11 fast_pskip=1 chroma_qp_offset=-2 threads=3 lookahead_threads=1 sliced_threads=0 nr=0 decimate=1 interlaced=0 bluray_compat=0 constrained_intra=0 bframes=3 b_pyramid=2 b_adapt=1 b_bias=0 direct=1 weightb=1 open_gop=0 weightp=2 keyint=250 keyint_min=25 scenecut=40 intra_refresh=0 rc_lookahead=40 rc=crf mbtree=1 crf=45.0 qcomp=0.60 qpmin=0 qpmax=69 qpstep=4 ip_ratio=1.40 aq=1:1.00\n",
      "Output #0, mp4, to '/home/ozzom/Videos/resized/선형대수 18강 고유값과 고유벡터 및 대각화.mp4':\n",
      "  Metadata:\n",
      "    major_brand     : mp42\n",
      "    minor_version   : 0\n",
      "    compatible_brands: isommp42\n",
      "    encoder         : Lavf58.76.100\n",
      "  Stream #0:0(und): Video: h264 (avc1 / 0x31637661), yuv420p(progressive), 640x360 [SAR 1:1 DAR 16:9], q=2-31, 29.97 fps, 30k tbn (default)\n",
      "    Metadata:\n",
      "      creation_time   : 2015-11-20T08:33:18.000000Z\n",
      "      handler_name    : ISO Media file produced by Google Inc. Created on: 11/20/2015.\n",
      "      vendor_id       : [0][0][0][0]\n",
      "      encoder         : Lavc58.134.100 libx264\n",
      "    Side data:\n",
      "      cpb: bitrate max/min/avg: 0/0/0 buffer size: 0 vbv_delay: N/A\n",
      "  Stream #0:1(und): Audio: aac (LC) (mp4a / 0x6134706D), 44100 Hz, stereo, fltp, 128 kb/s (default)\n",
      "    Metadata:\n",
      "      creation_time   : 2015-11-20T08:33:18.000000Z\n",
      "      handler_name    : ISO Media file produced by Google Inc. Created on: 11/20/2015.\n",
      "      vendor_id       : [0][0][0][0]\n",
      "      encoder         : Lavc58.134.100 aac\n",
      "av_interleaved_write_frame(): No space left on device:01.92 bitrate= 138.9kbits/s speed=12.3x    \n",
      "    Last message repeated 1 times\n",
      "Error writing trailer of /home/ozzom/Videos/resized/선형대수 18강 고유값과 고유벡터 및 대각화.mp4: No space left on device\n",
      "frame= 9243 fps=368 q=51.0 Lsize=    5120kB time=00:05:08.40 bitrate= 136.0kbits/s speed=12.3x    \n",
      "video:637kB audio:4766kB subtitle:0kB other streams:0kB global headers:0kB muxing overhead: unknown\n",
      "[libx264 @ 0x5649b9a11b40] frame I:40    Avg QP:36.93  size:  1927\n",
      "[libx264 @ 0x5649b9a11b40] frame P:2908  Avg QP:44.44  size:   129\n",
      "[libx264 @ 0x5649b9a11b40] frame B:6295  Avg QP:50.26  size:    32\n",
      "[libx264 @ 0x5649b9a11b40] consecutive B-frames:  1.8% 18.2% 12.4% 67.7%\n",
      "[libx264 @ 0x5649b9a11b40] mb I  I16..4: 39.1% 56.2%  4.7%\n",
      "[libx264 @ 0x5649b9a11b40] mb P  I16..4:  0.4%  0.9%  0.0%  P16..4:  5.1%  0.3%  0.1%  0.0%  0.0%    skip:93.2%\n",
      "[libx264 @ 0x5649b9a11b40] mb B  I16..4:  0.0%  0.0%  0.0%  B16..8:  1.3%  0.0%  0.0%  direct: 0.0%  skip:98.7%  L0:27.7% L1:72.2% BI: 0.0%\n",
      "[libx264 @ 0x5649b9a11b40] 8x8 transform intra:61.4% inter:92.8%\n",
      "[libx264 @ 0x5649b9a11b40] coded y,uvDC,uvAC intra: 6.4% 13.9% 1.6% inter: 0.0% 0.1% 0.0%\n",
      "[libx264 @ 0x5649b9a11b40] i16 v,h,dc,p: 30% 52%  8% 11%\n",
      "[libx264 @ 0x5649b9a11b40] i8 v,h,dc,ddl,ddr,vr,hd,vl,hu: 13%  8% 74%  1%  1%  1%  1%  1%  1%\n",
      "[libx264 @ 0x5649b9a11b40] i4 v,h,dc,ddl,ddr,vr,hd,vl,hu: 28% 28% 26%  3%  3%  3%  3%  2%  4%\n",
      "[libx264 @ 0x5649b9a11b40] i8c dc,h,v,p: 90%  7%  4%  0%\n",
      "[libx264 @ 0x5649b9a11b40] Weighted P-Frames: Y:1.0% UV:1.0%\n",
      "[libx264 @ 0x5649b9a11b40] ref P L0: 76.9%  7.7% 11.3%  4.0%  0.1%\n",
      "[libx264 @ 0x5649b9a11b40] ref B L0: 88.2%  9.5%  2.4%\n",
      "[libx264 @ 0x5649b9a11b40] ref B L1: 97.4%  2.6%\n",
      "[libx264 @ 0x5649b9a11b40] kb/s:16.98\n",
      "[aac @ 0x5649b9aa1900] Qavg: 1323.360\n",
      "Conversion failed!\n",
      "ffmpeg version 4.4.2-0ubuntu0.22.04.1 Copyright (c) 2000-2021 the FFmpeg developers\n",
      "  built with gcc 11 (Ubuntu 11.2.0-19ubuntu1)\n",
      "  configuration: --prefix=/usr --extra-version=0ubuntu0.22.04.1 --toolchain=hardened --libdir=/usr/lib/x86_64-linux-gnu --incdir=/usr/include/x86_64-linux-gnu --arch=amd64 --enable-gpl --disable-stripping --enable-gnutls --enable-ladspa --enable-libaom --enable-libass --enable-libbluray --enable-libbs2b --enable-libcaca --enable-libcdio --enable-libcodec2 --enable-libdav1d --enable-libflite --enable-libfontconfig --enable-libfreetype --enable-libfribidi --enable-libgme --enable-libgsm --enable-libjack --enable-libmp3lame --enable-libmysofa --enable-libopenjpeg --enable-libopenmpt --enable-libopus --enable-libpulse --enable-librabbitmq --enable-librubberband --enable-libshine --enable-libsnappy --enable-libsoxr --enable-libspeex --enable-libsrt --enable-libssh --enable-libtheora --enable-libtwolame --enable-libvidstab --enable-libvorbis --enable-libvpx --enable-libwebp --enable-libx265 --enable-libxml2 --enable-libxvid --enable-libzimg --enable-libzmq --enable-libzvbi --enable-lv2 --enable-omx --enable-openal --enable-opencl --enable-opengl --enable-sdl2 --enable-pocketsphinx --enable-librsvg --enable-libmfx --enable-libdc1394 --enable-libdrm --enable-libiec61883 --enable-chromaprint --enable-frei0r --enable-libx264 --enable-shared\n",
      "  libavutil      56. 70.100 / 56. 70.100\n",
      "  libavcodec     58.134.100 / 58.134.100\n",
      "  libavformat    58. 76.100 / 58. 76.100\n",
      "  libavdevice    58. 13.100 / 58. 13.100\n",
      "  libavfilter     7.110.100 /  7.110.100\n",
      "  libswscale      5.  9.100 /  5.  9.100\n",
      "  libswresample   3.  9.100 /  3.  9.100\n",
      "  libpostproc    55.  9.100 / 55.  9.100\n",
      "Input #0, mov,mp4,m4a,3gp,3g2,mj2, from '/home/ozzom/Videos/LinearAlgebra/선형대수 16강 판별식의 공식.mp4':\n",
      "  Metadata:\n",
      "    major_brand     : mp42\n",
      "    minor_version   : 0\n",
      "    compatible_brands: isommp42\n",
      "    creation_time   : 2015-06-17T10:45:52.000000Z\n",
      "  Duration: 01:06:31.77, start: 0.000000, bitrate: 334 kb/s\n",
      "  Stream #0:0(und): Video: h264 (Main) (avc1 / 0x31637661), yuv420p, 640x360 [SAR 1:1 DAR 16:9], 204 kb/s, 29.97 fps, 29.97 tbr, 90k tbn, 59.94 tbc (default)\n",
      "    Metadata:\n",
      "      creation_time   : 2015-06-17T10:45:52.000000Z\n",
      "      handler_name    : ISO Media file produced by Google Inc. Created on: 06/17/2015.\n",
      "      vendor_id       : [0][0][0][0]\n",
      "  Stream #0:1(und): Audio: aac (LC) (mp4a / 0x6134706D), 44100 Hz, stereo, fltp, 125 kb/s (default)\n",
      "    Metadata:\n",
      "      creation_time   : 2015-06-17T10:45:52.000000Z\n",
      "      handler_name    : ISO Media file produced by Google Inc. Created on: 06/17/2015.\n",
      "      vendor_id       : [0][0][0][0]\n",
      "Stream mapping:\n",
      "  Stream #0:0 -> #0:0 (h264 (native) -> h264 (libx264))\n",
      "  Stream #0:1 -> #0:1 (aac (native) -> aac (native))\n",
      "Press [q] to stop, [?] for help\n",
      "[libx264 @ 0x556a6dba2540] using SAR=1/1\n",
      "[libx264 @ 0x556a6dba2540] using cpu capabilities: MMX2 SSE2Fast SSSE3 SSE4.2 AVX FMA3 BMI2 AVX2\n",
      "[libx264 @ 0x556a6dba2540] profile High, level 3.0, 4:2:0, 8-bit\n",
      "[libx264 @ 0x556a6dba2540] 264 - core 163 r3060 5db6aa6 - H.264/MPEG-4 AVC codec - Copyleft 2003-2021 - http://www.videolan.org/x264.html - options: cabac=1 ref=3 deblock=1:0:0 analyse=0x3:0x113 me=hex subme=7 psy=1 psy_rd=1.00:0.00 mixed_ref=1 me_range=16 chroma_me=1 trellis=1 8x8dct=1 cqm=0 deadzone=21,11 fast_pskip=1 chroma_qp_offset=-2 threads=3 lookahead_threads=1 sliced_threads=0 nr=0 decimate=1 interlaced=0 bluray_compat=0 constrained_intra=0 bframes=3 b_pyramid=2 b_adapt=1 b_bias=0 direct=1 weightb=1 open_gop=0 weightp=2 keyint=250 keyint_min=25 scenecut=40 intra_refresh=0 rc_lookahead=40 rc=crf mbtree=1 crf=45.0 qcomp=0.60 qpmin=0 qpmax=69 qpstep=4 ip_ratio=1.40 aq=1:1.00\n",
      "Output #0, mp4, to '/home/ozzom/Videos/resized/선형대수 16강 판별식의 공식.mp4':\n",
      "  Metadata:\n",
      "    major_brand     : mp42\n",
      "    minor_version   : 0\n",
      "    compatible_brands: isommp42\n",
      "    encoder         : Lavf58.76.100\n",
      "  Stream #0:0(und): Video: h264 (avc1 / 0x31637661), yuv420p(progressive), 640x360 [SAR 1:1 DAR 16:9], q=2-31, 29.97 fps, 30k tbn (default)\n",
      "    Metadata:\n",
      "      creation_time   : 2015-06-17T10:45:52.000000Z\n",
      "      handler_name    : ISO Media file produced by Google Inc. Created on: 06/17/2015.\n",
      "      vendor_id       : [0][0][0][0]\n",
      "      encoder         : Lavc58.134.100 libx264\n",
      "    Side data:\n",
      "      cpb: bitrate max/min/avg: 0/0/0 buffer size: 0 vbv_delay: N/A\n",
      "  Stream #0:1(und): Audio: aac (LC) (mp4a / 0x6134706D), 44100 Hz, stereo, fltp, 128 kb/s (default)\n",
      "    Metadata:\n",
      "      creation_time   : 2015-06-17T10:45:52.000000Z\n",
      "      handler_name    : ISO Media file produced by Google Inc. Created on: 06/17/2015.\n",
      "      vendor_id       : [0][0][0][0]\n",
      "      encoder         : Lavc58.134.100 aac\n",
      "av_interleaved_write_frame(): No space left on device:22.40 bitrate= 135.9kbits/s speed=12.2x    \n",
      "    Last message repeated 1 times\n",
      "Error writing trailer of /home/ozzom/Videos/resized/선형대수 16강 판별식의 공식.mp4: No space left on device\n",
      "frame= 7924 fps=363 q=51.0 Lsize=    4352kB time=00:04:24.28 bitrate= 134.9kbits/s speed=12.1x    \n",
      "video:556kB audio:4077kB subtitle:0kB other streams:0kB global headers:0kB muxing overhead: unknown\n",
      "[libx264 @ 0x556a6dba2540] frame I:34    Avg QP:36.80  size:  2059\n",
      "[libx264 @ 0x556a6dba2540] frame P:2482  Avg QP:43.92  size:   131\n",
      "[libx264 @ 0x556a6dba2540] frame B:5408  Avg QP:50.10  size:    33\n",
      "[libx264 @ 0x556a6dba2540] consecutive B-frames:  1.9% 17.6% 10.9% 69.5%\n",
      "[libx264 @ 0x556a6dba2540] mb I  I16..4: 38.1% 56.9%  5.0%\n",
      "[libx264 @ 0x556a6dba2540] mb P  I16..4:  0.5%  1.3%  0.0%  P16..4:  4.6%  0.3%  0.1%  0.0%  0.0%    skip:93.3%\n",
      "[libx264 @ 0x556a6dba2540] mb B  I16..4:  0.0%  0.0%  0.0%  B16..8:  1.4%  0.0%  0.0%  direct: 0.0%  skip:98.6%  L0:28.7% L1:71.3% BI: 0.0%\n",
      "[libx264 @ 0x556a6dba2540] 8x8 transform intra:66.3% inter:91.9%\n",
      "[libx264 @ 0x556a6dba2540] coded y,uvDC,uvAC intra: 6.0% 14.7% 1.8% inter: 0.0% 0.1% 0.0%\n",
      "[libx264 @ 0x556a6dba2540] i16 v,h,dc,p: 31% 49%  9% 11%\n",
      "[libx264 @ 0x556a6dba2540] i8 v,h,dc,ddl,ddr,vr,hd,vl,hu: 13%  7% 75%  1%  1%  1%  1%  1%  1%\n",
      "[libx264 @ 0x556a6dba2540] i4 v,h,dc,ddl,ddr,vr,hd,vl,hu: 30% 24% 28%  3%  3%  3%  4%  3%  3%\n",
      "[libx264 @ 0x556a6dba2540] i8c dc,h,v,p: 88%  7%  5%  0%\n",
      "[libx264 @ 0x556a6dba2540] Weighted P-Frames: Y:1.4% UV:1.4%\n",
      "[libx264 @ 0x556a6dba2540] ref P L0: 75.2%  8.1% 12.1%  4.5%  0.1%\n",
      "[libx264 @ 0x556a6dba2540] ref B L0: 86.6% 10.6%  2.7%\n",
      "[libx264 @ 0x556a6dba2540] ref B L1: 97.4%  2.6%\n",
      "[libx264 @ 0x556a6dba2540] kb/s:17.30\n",
      "[aac @ 0x556a6d9ad680] Qavg: 1515.557\n",
      "Conversion failed!\n",
      "ffmpeg version 4.4.2-0ubuntu0.22.04.1 Copyright (c) 2000-2021 the FFmpeg developers\n",
      "  built with gcc 11 (Ubuntu 11.2.0-19ubuntu1)\n",
      "  configuration: --prefix=/usr --extra-version=0ubuntu0.22.04.1 --toolchain=hardened --libdir=/usr/lib/x86_64-linux-gnu --incdir=/usr/include/x86_64-linux-gnu --arch=amd64 --enable-gpl --disable-stripping --enable-gnutls --enable-ladspa --enable-libaom --enable-libass --enable-libbluray --enable-libbs2b --enable-libcaca --enable-libcdio --enable-libcodec2 --enable-libdav1d --enable-libflite --enable-libfontconfig --enable-libfreetype --enable-libfribidi --enable-libgme --enable-libgsm --enable-libjack --enable-libmp3lame --enable-libmysofa --enable-libopenjpeg --enable-libopenmpt --enable-libopus --enable-libpulse --enable-librabbitmq --enable-librubberband --enable-libshine --enable-libsnappy --enable-libsoxr --enable-libspeex --enable-libsrt --enable-libssh --enable-libtheora --enable-libtwolame --enable-libvidstab --enable-libvorbis --enable-libvpx --enable-libwebp --enable-libx265 --enable-libxml2 --enable-libxvid --enable-libzimg --enable-libzmq --enable-libzvbi --enable-lv2 --enable-omx --enable-openal --enable-opencl --enable-opengl --enable-sdl2 --enable-pocketsphinx --enable-librsvg --enable-libmfx --enable-libdc1394 --enable-libdrm --enable-libiec61883 --enable-chromaprint --enable-frei0r --enable-libx264 --enable-shared\n",
      "  libavutil      56. 70.100 / 56. 70.100\n",
      "  libavcodec     58.134.100 / 58.134.100\n",
      "  libavformat    58. 76.100 / 58. 76.100\n",
      "  libavdevice    58. 13.100 / 58. 13.100\n",
      "  libavfilter     7.110.100 /  7.110.100\n",
      "  libswscale      5.  9.100 /  5.  9.100\n",
      "  libswresample   3.  9.100 /  3.  9.100\n",
      "  libpostproc    55.  9.100 / 55.  9.100\n",
      "Input #0, mov,mp4,m4a,3gp,3g2,mj2, from '/home/ozzom/Videos/LinearAlgebra/선형대수 20강 동질최소제곱법의 해와 마르코프 행렬.mp4':\n",
      "  Metadata:\n",
      "    major_brand     : mp42\n",
      "    minor_version   : 0\n",
      "    compatible_brands: isommp42\n",
      "    creation_time   : 2013-12-28T15:45:24.000000Z\n",
      "  Duration: 01:13:16.40, start: 0.000000, bitrate: 394 kb/s\n",
      "  Stream #0:0(und): Video: h264 (Main) (avc1 / 0x31637661), yuv420p, 640x360, 340 kb/s, 29.97 fps, 29.97 tbr, 90k tbn, 59.94 tbc (default)\n",
      "    Metadata:\n",
      "      creation_time   : 2013-12-28T15:45:24.000000Z\n",
      "      handler_name    : ISO Media file produced by Google Inc. Created on: 12/28/2013.\n",
      "      vendor_id       : [0][0][0][0]\n",
      "  Stream #0:1(und): Audio: aac (LC) (mp4a / 0x6134706D), 44100 Hz, stereo, fltp, 125 kb/s (default)\n",
      "    Metadata:\n",
      "      creation_time   : 2013-12-28T15:45:24.000000Z\n",
      "      handler_name    : ISO Media file produced by Google Inc. Created on: 12/28/2013.\n",
      "      vendor_id       : [0][0][0][0]\n",
      "Stream mapping:\n",
      "  Stream #0:0 -> #0:0 (h264 (native) -> h264 (libx264))\n",
      "  Stream #0:1 -> #0:1 (aac (native) -> aac (native))\n",
      "Press [q] to stop, [?] for help\n",
      "[libx264 @ 0x560c3a08f500] using cpu capabilities: MMX2 SSE2Fast SSSE3 SSE4.2 AVX FMA3 BMI2 AVX2\n",
      "[libx264 @ 0x560c3a08f500] profile High, level 3.0, 4:2:0, 8-bit\n",
      "[libx264 @ 0x560c3a08f500] 264 - core 163 r3060 5db6aa6 - H.264/MPEG-4 AVC codec - Copyleft 2003-2021 - http://www.videolan.org/x264.html - options: cabac=1 ref=3 deblock=1:0:0 analyse=0x3:0x113 me=hex subme=7 psy=1 psy_rd=1.00:0.00 mixed_ref=1 me_range=16 chroma_me=1 trellis=1 8x8dct=1 cqm=0 deadzone=21,11 fast_pskip=1 chroma_qp_offset=-2 threads=3 lookahead_threads=1 sliced_threads=0 nr=0 decimate=1 interlaced=0 bluray_compat=0 constrained_intra=0 bframes=3 b_pyramid=2 b_adapt=1 b_bias=0 direct=1 weightb=1 open_gop=0 weightp=2 keyint=250 keyint_min=25 scenecut=40 intra_refresh=0 rc_lookahead=40 rc=crf mbtree=1 crf=45.0 qcomp=0.60 qpmin=0 qpmax=69 qpstep=4 ip_ratio=1.40 aq=1:1.00\n",
      "Output #0, mp4, to '/home/ozzom/Videos/resized/선형대수 20강 동질최소제곱법의 해와 마르코프 행렬.mp4':\n",
      "  Metadata:\n",
      "    major_brand     : mp42\n",
      "    minor_version   : 0\n",
      "    compatible_brands: isommp42\n",
      "    encoder         : Lavf58.76.100\n",
      "  Stream #0:0(und): Video: h264 (avc1 / 0x31637661), yuv420p(progressive), 640x360, q=2-31, 29.97 fps, 30k tbn (default)\n",
      "    Metadata:\n",
      "      creation_time   : 2013-12-28T15:45:24.000000Z\n",
      "      handler_name    : ISO Media file produced by Google Inc. Created on: 12/28/2013.\n",
      "      vendor_id       : [0][0][0][0]\n",
      "      encoder         : Lavc58.134.100 libx264\n",
      "    Side data:\n",
      "      cpb: bitrate max/min/avg: 0/0/0 buffer size: 0 vbv_delay: N/A\n",
      "  Stream #0:1(und): Audio: aac (LC) (mp4a / 0x6134706D), 44100 Hz, stereo, fltp, 128 kb/s (default)\n",
      "    Metadata:\n",
      "      creation_time   : 2013-12-28T15:45:24.000000Z\n",
      "      handler_name    : ISO Media file produced by Google Inc. Created on: 12/28/2013.\n",
      "      vendor_id       : [0][0][0][0]\n",
      "      encoder         : Lavc58.134.100 aac\n",
      "av_interleaved_write_frame(): No space left on device:32.78 bitrate=  64.0kbits/s speed=5.83x    \n",
      "    Last message repeated 1 times\n",
      "Error writing trailer of /home/ozzom/Videos/resized/선형대수 20강 동질최소제곱법의 해와 마르코프 행렬.mp4: No space left on device\n",
      "frame= 1017 fps=173 q=51.0 Lsize=     256kB time=00:00:33.94 bitrate=  61.8kbits/s speed=5.77x    \n",
      "video:82kB audio:457kB subtitle:0kB other streams:0kB global headers:0kB muxing overhead: unknown\n",
      "[libx264 @ 0x560c3a08f500] frame I:7     Avg QP:38.48  size:  1712\n",
      "[libx264 @ 0x560c3a08f500] frame P:295   Avg QP:40.98  size:   171\n",
      "[libx264 @ 0x560c3a08f500] frame B:715   Avg QP:44.93  size:    36\n",
      "[libx264 @ 0x560c3a08f500] consecutive B-frames:  3.3%  2.4% 19.2% 75.1%\n",
      "[libx264 @ 0x560c3a08f500] mb I  I16..4: 28.0% 66.7%  5.3%\n",
      "[libx264 @ 0x560c3a08f500] mb P  I16..4:  1.2%  2.8%  0.0%  P16..4:  4.3%  0.2%  0.1%  0.0%  0.0%    skip:91.3%\n",
      "[libx264 @ 0x560c3a08f500] mb B  I16..4:  0.0%  0.0%  0.0%  B16..8:  1.8%  0.0%  0.0%  direct: 0.0%  skip:98.2%  L0:32.9% L1:66.9% BI: 0.2%\n",
      "[libx264 @ 0x560c3a08f500] 8x8 transform intra:68.3% inter:88.1%\n",
      "[libx264 @ 0x560c3a08f500] coded y,uvDC,uvAC intra: 5.5% 20.0% 2.5% inter: 0.1% 0.3% 0.0%\n",
      "[libx264 @ 0x560c3a08f500] i16 v,h,dc,p: 34% 38%  8% 20%\n",
      "[libx264 @ 0x560c3a08f500] i8 v,h,dc,ddl,ddr,vr,hd,vl,hu: 12%  9% 75%  1%  1%  1%  1%  1%  1%\n",
      "[libx264 @ 0x560c3a08f500] i4 v,h,dc,ddl,ddr,vr,hd,vl,hu: 34% 28% 17%  4%  3%  3%  5%  3%  3%\n",
      "[libx264 @ 0x560c3a08f500] i8c dc,h,v,p: 91%  5%  4%  0%\n",
      "[libx264 @ 0x560c3a08f500] Weighted P-Frames: Y:6.8% UV:6.8%\n",
      "[libx264 @ 0x560c3a08f500] ref P L0: 69.3%  6.4% 20.0%  4.2%  0.2%\n",
      "[libx264 @ 0x560c3a08f500] ref B L0: 85.2% 12.0%  2.8%\n",
      "[libx264 @ 0x560c3a08f500] ref B L1: 96.1%  3.9%\n",
      "[libx264 @ 0x560c3a08f500] kb/s:20.73\n",
      "[aac @ 0x560c3a092b80] Qavg: 10016.551\n",
      "Conversion failed!\n",
      "ffmpeg version 4.4.2-0ubuntu0.22.04.1 Copyright (c) 2000-2021 the FFmpeg developers\n",
      "  built with gcc 11 (Ubuntu 11.2.0-19ubuntu1)\n",
      "  configuration: --prefix=/usr --extra-version=0ubuntu0.22.04.1 --toolchain=hardened --libdir=/usr/lib/x86_64-linux-gnu --incdir=/usr/include/x86_64-linux-gnu --arch=amd64 --enable-gpl --disable-stripping --enable-gnutls --enable-ladspa --enable-libaom --enable-libass --enable-libbluray --enable-libbs2b --enable-libcaca --enable-libcdio --enable-libcodec2 --enable-libdav1d --enable-libflite --enable-libfontconfig --enable-libfreetype --enable-libfribidi --enable-libgme --enable-libgsm --enable-libjack --enable-libmp3lame --enable-libmysofa --enable-libopenjpeg --enable-libopenmpt --enable-libopus --enable-libpulse --enable-librabbitmq --enable-librubberband --enable-libshine --enable-libsnappy --enable-libsoxr --enable-libspeex --enable-libsrt --enable-libssh --enable-libtheora --enable-libtwolame --enable-libvidstab --enable-libvorbis --enable-libvpx --enable-libwebp --enable-libx265 --enable-libxml2 --enable-libxvid --enable-libzimg --enable-libzmq --enable-libzvbi --enable-lv2 --enable-omx --enable-openal --enable-opencl --enable-opengl --enable-sdl2 --enable-pocketsphinx --enable-librsvg --enable-libmfx --enable-libdc1394 --enable-libdrm --enable-libiec61883 --enable-chromaprint --enable-frei0r --enable-libx264 --enable-shared\n",
      "  libavutil      56. 70.100 / 56. 70.100\n",
      "  libavcodec     58.134.100 / 58.134.100\n",
      "  libavformat    58. 76.100 / 58. 76.100\n",
      "  libavdevice    58. 13.100 / 58. 13.100\n",
      "  libavfilter     7.110.100 /  7.110.100\n",
      "  libswscale      5.  9.100 /  5.  9.100\n",
      "  libswresample   3.  9.100 /  3.  9.100\n",
      "  libpostproc    55.  9.100 / 55.  9.100\n",
      "Input #0, mov,mp4,m4a,3gp,3g2,mj2, from '/home/ozzom/Videos/LinearAlgebra/선형대수 12강 1차연립방정식 풀이와 직교벡터 구하기.mp4':\n",
      "  Metadata:\n",
      "    major_brand     : mp42\n",
      "    minor_version   : 0\n",
      "    compatible_brands: isommp42\n",
      "    creation_time   : 2013-12-28T11:11:48.000000Z\n",
      "  Duration: 00:56:11.58, start: 0.000000, bitrate: 426 kb/s\n",
      "  Stream #0:0(und): Video: h264 (Main) (avc1 / 0x31637661), yuv420p, 640x360, 296 kb/s, 29.97 fps, 29.97 tbr, 90k tbn, 59.94 tbc (default)\n",
      "    Metadata:\n",
      "      creation_time   : 2013-12-28T11:11:48.000000Z\n",
      "      handler_name    : ISO Media file produced by Google Inc. Created on: 12/28/2013.\n",
      "      vendor_id       : [0][0][0][0]\n",
      "  Stream #0:1(und): Audio: aac (LC) (mp4a / 0x6134706D), 44100 Hz, stereo, fltp, 125 kb/s (default)\n",
      "    Metadata:\n",
      "      creation_time   : 2013-12-28T11:11:48.000000Z\n",
      "      handler_name    : ISO Media file produced by Google Inc. Created on: 12/28/2013.\n",
      "      vendor_id       : [0][0][0][0]\n",
      "Stream mapping:\n",
      "  Stream #0:0 -> #0:0 (h264 (native) -> h264 (libx264))\n",
      "  Stream #0:1 -> #0:1 (aac (native) -> aac (native))\n",
      "Press [q] to stop, [?] for help\n",
      "[libx264 @ 0x5600497a0c40] using cpu capabilities: MMX2 SSE2Fast SSSE3 SSE4.2 AVX FMA3 BMI2 AVX2\n",
      "[libx264 @ 0x5600497a0c40] profile High, level 3.0, 4:2:0, 8-bit\n",
      "[libx264 @ 0x5600497a0c40] 264 - core 163 r3060 5db6aa6 - H.264/MPEG-4 AVC codec - Copyleft 2003-2021 - http://www.videolan.org/x264.html - options: cabac=1 ref=3 deblock=1:0:0 analyse=0x3:0x113 me=hex subme=7 psy=1 psy_rd=1.00:0.00 mixed_ref=1 me_range=16 chroma_me=1 trellis=1 8x8dct=1 cqm=0 deadzone=21,11 fast_pskip=1 chroma_qp_offset=-2 threads=3 lookahead_threads=1 sliced_threads=0 nr=0 decimate=1 interlaced=0 bluray_compat=0 constrained_intra=0 bframes=3 b_pyramid=2 b_adapt=1 b_bias=0 direct=1 weightb=1 open_gop=0 weightp=2 keyint=250 keyint_min=25 scenecut=40 intra_refresh=0 rc_lookahead=40 rc=crf mbtree=1 crf=45.0 qcomp=0.60 qpmin=0 qpmax=69 qpstep=4 ip_ratio=1.40 aq=1:1.00\n",
      "Output #0, mp4, to '/home/ozzom/Videos/resized/선형대수 12강 1차연립방정식 풀이와 직교벡터 구하기.mp4':\n",
      "  Metadata:\n",
      "    major_brand     : mp42\n",
      "    minor_version   : 0\n",
      "    compatible_brands: isommp42\n",
      "    encoder         : Lavf58.76.100\n",
      "  Stream #0:0(und): Video: h264 (avc1 / 0x31637661), yuv420p(progressive), 640x360, q=2-31, 29.97 fps, 30k tbn (default)\n",
      "    Metadata:\n",
      "      creation_time   : 2013-12-28T11:11:48.000000Z\n",
      "      handler_name    : ISO Media file produced by Google Inc. Created on: 12/28/2013.\n",
      "      vendor_id       : [0][0][0][0]\n",
      "      encoder         : Lavc58.134.100 libx264\n",
      "    Side data:\n",
      "      cpb: bitrate max/min/avg: 0/0/0 buffer size: 0 vbv_delay: N/A\n",
      "  Stream #0:1(und): Audio: aac (LC) (mp4a / 0x6134706D), 44100 Hz, stereo, fltp, 128 kb/s (default)\n",
      "    Metadata:\n",
      "      creation_time   : 2013-12-28T11:11:48.000000Z\n",
      "      handler_name    : ISO Media file produced by Google Inc. Created on: 12/28/2013.\n",
      "      vendor_id       : [0][0][0][0]\n",
      "      encoder         : Lavc58.134.100 aac\n",
      "av_interleaved_write_frame(): No space left on device:15.81 bitrate=   0.0kbits/s speed=10.2x    \n",
      "    Last message repeated 1 times\n",
      "Error writing trailer of /home/ozzom/Videos/resized/선형대수 12강 1차연립방정식 풀이와 직교벡터 구하기.mp4: No space left on device\n",
      "frame=  583 fps=316 q=51.0 Lsize=       0kB time=00:00:19.08 bitrate=   0.0kbits/s speed=10.3x    \n",
      "video:54kB audio:223kB subtitle:0kB other streams:0kB global headers:0kB muxing overhead: unknown\n",
      "[libx264 @ 0x5600497a0c40] frame I:4     Avg QP:39.51  size:  1259\n",
      "[libx264 @ 0x5600497a0c40] frame P:172   Avg QP:41.01  size:   197\n",
      "[libx264 @ 0x5600497a0c40] frame B:407   Avg QP:43.08  size:    40\n",
      "[libx264 @ 0x5600497a0c40] consecutive B-frames:  5.0%  4.1%  5.1% 85.8%\n",
      "[libx264 @ 0x5600497a0c40] mb I  I16..4: 24.0% 71.7%  4.2%\n",
      "[libx264 @ 0x5600497a0c40] mb P  I16..4:  2.0%  3.4%  0.0%  P16..4:  4.2%  0.2%  0.1%  0.0%  0.0%    skip:90.0%\n",
      "[libx264 @ 0x5600497a0c40] mb B  I16..4:  0.0%  0.0%  0.0%  B16..8:  2.1%  0.0%  0.0%  direct: 0.0%  skip:97.8%  L0:26.3% L1:73.4% BI: 0.3%\n",
      "[libx264 @ 0x5600497a0c40] 8x8 transform intra:65.9% inter:86.2%\n",
      "[libx264 @ 0x5600497a0c40] coded y,uvDC,uvAC intra: 4.6% 21.0% 2.7% inter: 0.1% 0.4% 0.0%\n",
      "[libx264 @ 0x5600497a0c40] i16 v,h,dc,p: 39% 33%  7% 22%\n",
      "[libx264 @ 0x5600497a0c40] i8 v,h,dc,ddl,ddr,vr,hd,vl,hu: 13%  8% 76%  1%  1%  1%  1%  1%  1%\n",
      "[libx264 @ 0x5600497a0c40] i4 v,h,dc,ddl,ddr,vr,hd,vl,hu: 37% 21% 17%  5%  4%  4%  5%  3%  3%\n",
      "[libx264 @ 0x5600497a0c40] i8c dc,h,v,p: 92%  4%  4%  0%\n",
      "[libx264 @ 0x5600497a0c40] Weighted P-Frames: Y:2.9% UV:2.9%\n",
      "[libx264 @ 0x5600497a0c40] ref P L0: 70.1%  7.0% 18.5%  4.0%  0.3%\n",
      "[libx264 @ 0x5600497a0c40] ref B L0: 82.4% 15.1%  2.5%\n",
      "[libx264 @ 0x5600497a0c40] ref B L1: 95.5%  4.5%\n",
      "[libx264 @ 0x5600497a0c40] kb/s:22.73\n",
      "[aac @ 0x56004985c340] Qavg: 17614.492\n",
      "Conversion failed!\n"
     ]
    }
   ],
   "source": [
    "fileDictory = '/home/ozzom/Videos/LinearAlgebra'\n",
    "resizedDirectory = '/home/ozzom/Videos/resized/'\n",
    "\n",
    "files = os.listdir(fileDictory)\n",
    "mp4s = [file for file in files if file[-3:] == 'mp4']\n",
    "err = [] \n",
    "\n",
    "if not os.path.exists(fileDictory):\n",
    "    os.mkdir(resizedDirectory)\n",
    "    \n",
    "for i, mp4 in enumerate(mp4s):\n",
    "    filePath = fileDictory + '/' + mp4\n",
    "    # print(filePath)\n",
    "    try : \n",
    "        ffmpeg.input(filePath).output(resizedDirectory + mp4, crf=45, vsync='vfr').run()\n",
    "        \n",
    "#         # Progress Bar----------------------------------------------     \n",
    "#         percentage = int((i + 1) * 100 / len(mp4s))\n",
    "#         progress = percentage *'#' + (100 - percentage) * '-' \n",
    "#         print(f\"\\r{progress} {percentage}%\", end=\"\")    \n",
    "#         time.sleep(1)\n",
    "#         # ------------------------------------------------------------\n",
    "        \n",
    "    except:\n",
    "        os.remove(resizedDirectory + mp4)\n",
    "        err.append(resizedDirectory + mp4)            \n"
   ]
  },
  {
   "cell_type": "code",
   "execution_count": 3,
   "id": "2edfa09d-565f-40de-b7be-0c6778d9d565",
   "metadata": {},
   "outputs": [
    {
     "data": {
      "text/plain": [
       "['/home/ozzom/Videos/resized/선형대수 15강 행렬의 판별식.mp4',\n",
       " '/home/ozzom/Videos/resized/선형대수 19강 차분방정식과 고유값.mp4',\n",
       " '/home/ozzom/Videos/resized/선형대수 13강 일반최소제곱법과 QR 분할.mp4',\n",
       " '/home/ozzom/Videos/resized/선형대수 14강 함수 공간.mp4',\n",
       " '/home/ozzom/Videos/resized/선형대수 17강 판별식의 응용.mp4',\n",
       " '/home/ozzom/Videos/resized/선형대수 18강 고유값과 고유벡터 및 대각화.mp4',\n",
       " '/home/ozzom/Videos/resized/선형대수 16강 판별식의 공식.mp4',\n",
       " '/home/ozzom/Videos/resized/선형대수 20강 동질최소제곱법의 해와 마르코프 행렬.mp4',\n",
       " '/home/ozzom/Videos/resized/선형대수 12강 1차연립방정식 풀이와 직교벡터 구하기.mp4']"
      ]
     },
     "execution_count": 3,
     "metadata": {},
     "output_type": "execute_result"
    }
   ],
   "source": [
    "err"
   ]
  },
  {
   "cell_type": "code",
   "execution_count": null,
   "id": "11edd750-22d6-4c8a-9b96-850169be51f6",
   "metadata": {},
   "outputs": [],
   "source": []
  }
 ],
 "metadata": {
  "kernelspec": {
   "display_name": "Python 3 (ipykernel)",
   "language": "python",
   "name": "python3"
  },
  "language_info": {
   "codemirror_mode": {
    "name": "ipython",
    "version": 3
   },
   "file_extension": ".py",
   "mimetype": "text/x-python",
   "name": "python",
   "nbconvert_exporter": "python",
   "pygments_lexer": "ipython3",
   "version": "3.9.1"
  }
 },
 "nbformat": 4,
 "nbformat_minor": 5
}
